G75*
%MOIN*%
%OFA0B0*%
%FSLAX25Y25*%
%IPPOS*%
%LPD*%
%AMOC8*
5,1,8,0,0,1.08239X$1,22.5*
%
%ADD10R,0.05524X0.03950*%
%ADD11R,0.03950X0.05524*%
%ADD12R,0.05800X0.03000*%
%ADD13R,0.03000X0.05800*%
%ADD14OC8,0.08200*%
%ADD15OC8,0.06800*%
%ADD16R,0.03556X0.05918*%
%ADD17R,0.05918X0.03556*%
%ADD18R,0.03400X0.08800*%
%ADD19C,0.14383*%
%ADD20C,0.06304*%
%ADD21C,0.10072*%
%ADD22C,0.08200*%
%ADD23R,0.01981X0.07099*%
%ADD24C,0.03400*%
%ADD25C,0.24422*%
D10*
X0027250Y0061703D03*
X0027250Y0068789D03*
X0072250Y0068789D03*
X0072250Y0061703D03*
X0096000Y0099203D03*
X0096000Y0106289D03*
D11*
X0107457Y0125246D03*
X0114543Y0125246D03*
X0119957Y0125246D03*
X0127043Y0125246D03*
X0039543Y0127746D03*
X0032457Y0127746D03*
D12*
X0104100Y0108770D03*
X0104100Y0105620D03*
X0104100Y0102470D03*
X0104100Y0099321D03*
X0104100Y0096171D03*
X0104100Y0093022D03*
X0104100Y0089872D03*
X0104100Y0086722D03*
X0137900Y0086722D03*
X0137900Y0089872D03*
X0137900Y0093022D03*
X0137900Y0096171D03*
X0137900Y0099321D03*
X0137900Y0102470D03*
X0137900Y0105620D03*
X0137900Y0108770D03*
D13*
X0132024Y0114646D03*
X0128874Y0114646D03*
X0125724Y0114646D03*
X0122575Y0114646D03*
X0119425Y0114646D03*
X0116276Y0114646D03*
X0113126Y0114646D03*
X0109976Y0114646D03*
X0109976Y0080846D03*
X0113126Y0080846D03*
X0116276Y0080846D03*
X0119425Y0080846D03*
X0122575Y0080846D03*
X0125724Y0080846D03*
X0128874Y0080846D03*
X0132024Y0080846D03*
D14*
X0231000Y0097746D03*
X0241000Y0097746D03*
X0241000Y0107746D03*
X0231000Y0107746D03*
X0231000Y0117746D03*
X0241000Y0117746D03*
D15*
X0223953Y0139439D03*
X0213953Y0139439D03*
X0203953Y0139439D03*
X0193953Y0139439D03*
X0183953Y0139439D03*
X0173953Y0139439D03*
X0163953Y0139439D03*
X0153953Y0139439D03*
X0143953Y0139439D03*
X0133953Y0139439D03*
X0123953Y0139439D03*
X0113953Y0139439D03*
X0103953Y0139439D03*
X0093953Y0139439D03*
X0083953Y0139439D03*
X0073953Y0139439D03*
X0063953Y0139439D03*
X0053953Y0139439D03*
X0043953Y0139439D03*
X0033953Y0139439D03*
X0033953Y0149439D03*
X0043953Y0149439D03*
X0053953Y0149439D03*
X0063953Y0149439D03*
X0073953Y0149439D03*
X0083953Y0149439D03*
X0093953Y0149439D03*
X0103953Y0149439D03*
X0113953Y0149439D03*
X0123953Y0149439D03*
X0133953Y0149439D03*
X0143953Y0149439D03*
X0153953Y0149439D03*
X0163953Y0149439D03*
X0173953Y0149439D03*
X0183953Y0149439D03*
X0193953Y0149439D03*
X0203953Y0149439D03*
X0213953Y0149439D03*
X0223953Y0149439D03*
D16*
X0027260Y0017746D03*
X0034740Y0017746D03*
X0052260Y0017746D03*
X0059740Y0017746D03*
X0072260Y0020246D03*
X0079740Y0020246D03*
X0086010Y0067746D03*
X0093490Y0067746D03*
X0048490Y0067746D03*
X0041010Y0067746D03*
X0167260Y0112746D03*
X0174740Y0112746D03*
X0197260Y0112746D03*
X0204740Y0112746D03*
D17*
X0088500Y0021486D03*
X0088500Y0014006D03*
X0043500Y0014006D03*
X0043500Y0021486D03*
X0036000Y0106506D03*
X0036000Y0113986D03*
D18*
X0033500Y0054846D03*
X0028500Y0054846D03*
X0038500Y0054846D03*
X0043500Y0054846D03*
X0048500Y0054846D03*
X0053500Y0054846D03*
X0058500Y0054846D03*
X0063500Y0054846D03*
X0073500Y0054846D03*
X0078500Y0054846D03*
X0083500Y0054846D03*
X0088500Y0054846D03*
X0093500Y0054846D03*
X0098500Y0054846D03*
X0103500Y0054846D03*
X0108500Y0054846D03*
X0108500Y0030646D03*
X0103500Y0030646D03*
X0098500Y0030646D03*
X0093500Y0030646D03*
X0088500Y0030646D03*
X0083500Y0030646D03*
X0078500Y0030646D03*
X0073500Y0030646D03*
X0063500Y0030646D03*
X0058500Y0030646D03*
X0053500Y0030646D03*
X0048500Y0030646D03*
X0043500Y0030646D03*
X0038500Y0030646D03*
X0033500Y0030646D03*
X0028500Y0030646D03*
D19*
X0126000Y0022746D03*
X0238008Y0022746D03*
D20*
X0240016Y0039242D03*
X0230016Y0039242D03*
X0225528Y0055226D03*
X0215528Y0055226D03*
X0205528Y0055226D03*
X0195528Y0055226D03*
X0200528Y0065226D03*
X0210528Y0065226D03*
X0220528Y0065226D03*
X0230528Y0065226D03*
X0196000Y0039242D03*
X0186000Y0039242D03*
X0178008Y0039242D03*
X0168008Y0039242D03*
X0163520Y0055226D03*
X0153520Y0055226D03*
X0143520Y0055226D03*
X0133520Y0055226D03*
X0138520Y0065226D03*
X0148520Y0065226D03*
X0158520Y0065226D03*
X0168520Y0065226D03*
X0133992Y0039242D03*
X0123992Y0039242D03*
D21*
X0118992Y0050738D03*
X0245016Y0050738D03*
D22*
X0206000Y0097746D03*
X0196000Y0097746D03*
X0176000Y0097746D03*
X0166000Y0097746D03*
X0081000Y0097746D03*
X0081000Y0087746D03*
X0081000Y0107746D03*
D23*
X0067516Y0113770D03*
X0064957Y0113770D03*
X0062398Y0113770D03*
X0059839Y0113770D03*
X0057280Y0113770D03*
X0054720Y0113770D03*
X0052161Y0113770D03*
X0049602Y0113770D03*
X0047043Y0113770D03*
X0044484Y0113770D03*
X0044484Y0091722D03*
X0047043Y0091722D03*
X0049602Y0091722D03*
X0052161Y0091722D03*
X0054720Y0091722D03*
X0057280Y0091722D03*
X0059839Y0091722D03*
X0062398Y0091722D03*
X0064957Y0091722D03*
X0067516Y0091722D03*
D24*
X0060200Y0086046D03*
X0061800Y0080446D03*
X0069800Y0078846D03*
X0073000Y0082046D03*
X0077800Y0066046D03*
X0097000Y0072446D03*
X0097800Y0079646D03*
X0109000Y0092446D03*
X0126600Y0086046D03*
X0145800Y0086846D03*
X0149800Y0090046D03*
X0153800Y0090046D03*
X0155400Y0076446D03*
X0125000Y0074046D03*
X0149000Y0048446D03*
X0139400Y0038846D03*
X0153000Y0037246D03*
X0109000Y0040446D03*
X0102600Y0041246D03*
X0086600Y0042846D03*
X0084200Y0046046D03*
X0046600Y0045246D03*
X0042600Y0037246D03*
X0048200Y0024446D03*
X0038600Y0016446D03*
X0030600Y0022046D03*
X0063400Y0014046D03*
X0042600Y0061246D03*
X0033800Y0061246D03*
X0045000Y0067646D03*
X0032200Y0071646D03*
X0046600Y0086046D03*
X0067400Y0097246D03*
X0070600Y0102846D03*
X0051400Y0108446D03*
X0047400Y0119646D03*
X0057800Y0122846D03*
X0065000Y0119646D03*
X0065000Y0127646D03*
X0066600Y0134846D03*
X0109000Y0107646D03*
X0116200Y0110046D03*
X0133800Y0121246D03*
D25*
X0243126Y0144439D03*
X0014780Y0144439D03*
M02*
