G75*
%MOIN*%
%OFA0B0*%
%FSLAX25Y25*%
%IPPOS*%
%LPD*%
%AMOC8*
5,1,8,0,0,1.08239X$1,22.5*
%
%ADD10OC8,0.07400*%
%ADD11OC8,0.06000*%
%ADD12C,0.05504*%
%ADD13C,0.09272*%
%ADD14C,0.07400*%
%ADD15C,0.00600*%
%ADD16C,0.02600*%
%ADD17C,0.23622*%
D10*
X0231000Y0097746D03*
X0241000Y0097746D03*
X0241000Y0107746D03*
X0231000Y0107746D03*
X0231000Y0117746D03*
X0241000Y0117746D03*
D11*
X0223953Y0139439D03*
X0213953Y0139439D03*
X0203953Y0139439D03*
X0193953Y0139439D03*
X0183953Y0139439D03*
X0173953Y0139439D03*
X0163953Y0139439D03*
X0153953Y0139439D03*
X0143953Y0139439D03*
X0133953Y0139439D03*
X0123953Y0139439D03*
X0113953Y0139439D03*
X0103953Y0139439D03*
X0093953Y0139439D03*
X0083953Y0139439D03*
X0073953Y0139439D03*
X0063953Y0139439D03*
X0053953Y0139439D03*
X0043953Y0139439D03*
X0033953Y0139439D03*
X0033953Y0149439D03*
X0043953Y0149439D03*
X0053953Y0149439D03*
X0063953Y0149439D03*
X0073953Y0149439D03*
X0083953Y0149439D03*
X0093953Y0149439D03*
X0103953Y0149439D03*
X0113953Y0149439D03*
X0123953Y0149439D03*
X0133953Y0149439D03*
X0143953Y0149439D03*
X0153953Y0149439D03*
X0163953Y0149439D03*
X0173953Y0149439D03*
X0183953Y0149439D03*
X0193953Y0149439D03*
X0203953Y0149439D03*
X0213953Y0149439D03*
X0223953Y0149439D03*
D12*
X0220528Y0065226D03*
X0230528Y0065226D03*
X0225528Y0055226D03*
X0215528Y0055226D03*
X0205528Y0055226D03*
X0195528Y0055226D03*
X0200528Y0065226D03*
X0210528Y0065226D03*
X0196000Y0039242D03*
X0186000Y0039242D03*
X0178008Y0039242D03*
X0168008Y0039242D03*
X0163520Y0055226D03*
X0153520Y0055226D03*
X0143520Y0055226D03*
X0133520Y0055226D03*
X0138520Y0065226D03*
X0148520Y0065226D03*
X0158520Y0065226D03*
X0168520Y0065226D03*
X0133992Y0039242D03*
X0123992Y0039242D03*
X0230016Y0039242D03*
X0240016Y0039242D03*
D13*
X0245016Y0050738D03*
X0118992Y0050738D03*
D14*
X0081000Y0092746D03*
X0081000Y0102746D03*
X0081000Y0112746D03*
X0166000Y0097746D03*
X0176000Y0097746D03*
X0196000Y0097746D03*
X0206000Y0097746D03*
D15*
X0052600Y0010346D02*
X0028600Y0034346D01*
X0028600Y0039146D01*
X0034600Y0045146D01*
X0035800Y0045146D01*
X0034600Y0040346D02*
X0031600Y0040346D01*
X0029800Y0038546D01*
X0029800Y0034946D01*
X0053200Y0011546D01*
X0134800Y0011546D01*
X0173200Y0049946D01*
X0210400Y0049946D01*
X0215200Y0054746D01*
X0215528Y0055226D01*
X0210400Y0054746D02*
X0210400Y0064946D01*
X0210528Y0065226D01*
X0200528Y0065226D02*
X0200200Y0065546D01*
X0195400Y0070346D01*
X0094000Y0070346D01*
X0085600Y0061946D01*
X0083800Y0061946D01*
X0073000Y0061946D02*
X0055000Y0079946D01*
X0057400Y0085946D02*
X0034000Y0062546D01*
X0043000Y0048746D02*
X0034600Y0040346D01*
X0032200Y0039146D02*
X0031000Y0037946D01*
X0031000Y0035546D01*
X0032200Y0034346D01*
X0155200Y0034346D01*
X0172000Y0051146D01*
X0206800Y0051146D01*
X0210400Y0054746D01*
X0205528Y0055226D02*
X0205000Y0055346D01*
X0200800Y0055346D01*
X0194800Y0061346D01*
X0162400Y0061346D01*
X0158520Y0065226D01*
X0158200Y0064946D01*
X0157000Y0064946D01*
X0147400Y0055346D01*
X0143800Y0055346D01*
X0143520Y0055226D01*
X0143200Y0054746D01*
X0139600Y0051146D01*
X0119200Y0051146D01*
X0118992Y0050738D01*
X0139000Y0045146D02*
X0093400Y0045146D01*
X0089800Y0048746D01*
X0074800Y0048746D01*
X0062800Y0036746D01*
X0055000Y0037946D02*
X0101800Y0084746D01*
X0126400Y0084746D01*
X0127600Y0083546D01*
X0139600Y0083546D01*
X0140800Y0085946D02*
X0142600Y0084146D01*
X0142600Y0078746D01*
X0149800Y0071546D01*
X0197800Y0071546D01*
X0229000Y0102746D01*
X0236200Y0102746D01*
X0241000Y0107546D01*
X0241000Y0107746D01*
X0232600Y0112346D02*
X0119800Y0112346D01*
X0114350Y0106896D01*
X0126000Y0095246D01*
X0128800Y0085946D02*
X0101200Y0085946D01*
X0055600Y0040346D01*
X0053800Y0040346D01*
X0055000Y0037946D02*
X0051400Y0037946D01*
X0054400Y0035546D02*
X0034600Y0035546D01*
X0033400Y0036746D01*
X0032200Y0039146D02*
X0045400Y0039146D01*
X0055000Y0048746D01*
X0051400Y0048746D02*
X0043000Y0048746D01*
X0054400Y0035546D02*
X0068800Y0049946D01*
X0075400Y0049946D01*
X0094600Y0069146D01*
X0160000Y0069146D01*
X0163600Y0065546D01*
X0168400Y0065546D01*
X0168520Y0065226D01*
X0173800Y0054746D02*
X0195400Y0054746D01*
X0195528Y0055226D01*
X0173800Y0054746D02*
X0163000Y0043946D01*
X0092800Y0043946D01*
X0090400Y0046346D01*
X0088600Y0046346D01*
X0085000Y0074546D02*
X0085000Y0087746D01*
X0095200Y0087746D01*
X0104800Y0097346D01*
X0104200Y0097346D01*
X0099400Y0102146D01*
X0104800Y0097346D02*
X0114350Y0106896D01*
X0110200Y0106346D02*
X0092800Y0106346D01*
X0084400Y0097946D01*
X0082600Y0107546D02*
X0071200Y0107546D01*
X0062200Y0098546D01*
X0059800Y0097346D02*
X0059800Y0100946D01*
X0061000Y0102146D01*
X0062200Y0102146D01*
X0061000Y0102146D02*
X0038200Y0124946D01*
X0038200Y0144746D01*
X0034000Y0148946D01*
X0033953Y0149439D01*
X0059800Y0122546D02*
X0103000Y0122546D01*
X0119800Y0139346D01*
X0119800Y0141146D01*
X0124000Y0145346D01*
X0140200Y0145346D01*
X0143800Y0148946D01*
X0143953Y0149439D01*
X0143953Y0139439D02*
X0143800Y0139346D01*
X0124600Y0120146D01*
X0081400Y0120146D01*
X0069400Y0108146D01*
X0058600Y0108146D01*
X0059800Y0097346D02*
X0069400Y0087746D01*
X0085000Y0087746D01*
X0082600Y0107546D02*
X0085000Y0109946D01*
X0110200Y0109946D01*
X0105400Y0121346D02*
X0123400Y0139346D01*
X0123953Y0139439D01*
X0105400Y0121346D02*
X0080800Y0121346D01*
X0078400Y0118946D01*
X0059800Y0118946D01*
X0128800Y0085946D02*
X0140800Y0085946D01*
X0148600Y0087146D02*
X0210400Y0087146D01*
X0231000Y0107746D01*
X0232600Y0112346D02*
X0238000Y0117746D01*
X0241000Y0117746D01*
X0225528Y0055226D02*
X0225400Y0054746D01*
X0181000Y0010346D01*
X0052600Y0010346D01*
X0139000Y0045146D02*
X0148600Y0054746D01*
X0153400Y0054746D01*
X0153520Y0055226D01*
D16*
X0139600Y0083546D03*
X0148600Y0087146D03*
X0128800Y0085946D03*
X0126000Y0095246D03*
X0110200Y0106346D03*
X0110200Y0109946D03*
X0099400Y0102146D03*
X0084400Y0097946D03*
X0062200Y0098546D03*
X0062200Y0102146D03*
X0058600Y0108146D03*
X0059800Y0118946D03*
X0059800Y0122546D03*
X0057400Y0085946D03*
X0055000Y0079946D03*
X0073000Y0061946D03*
X0083800Y0061946D03*
X0085000Y0074546D03*
X0055000Y0048746D03*
X0051400Y0048746D03*
X0053800Y0040346D03*
X0051400Y0037946D03*
X0062800Y0036746D03*
X0088600Y0046346D03*
X0035800Y0045146D03*
X0033400Y0036746D03*
X0034000Y0062546D03*
D17*
X0014780Y0144439D03*
X0243126Y0144439D03*
M02*
