G75*
%MOIN*%
%OFA0B0*%
%FSLAX25Y25*%
%IPPOS*%
%LPD*%
%AMOC8*
5,1,8,0,0,1.08239X$1,22.5*
%
%ADD10R,0.04724X0.03150*%
%ADD11R,0.03150X0.04724*%
%ADD12R,0.05000X0.02200*%
%ADD13R,0.02200X0.05000*%
%ADD14OC8,0.07400*%
%ADD15OC8,0.06000*%
%ADD16R,0.02756X0.05118*%
%ADD17R,0.05118X0.02756*%
%ADD18R,0.02600X0.08000*%
%ADD19C,0.05504*%
%ADD20C,0.09272*%
%ADD21C,0.07400*%
%ADD22R,0.01181X0.06299*%
%ADD23C,0.01600*%
%ADD24C,0.00600*%
%ADD25C,0.02600*%
%ADD26C,0.23622*%
D10*
X0023500Y0059203D03*
X0023500Y0066289D03*
X0068500Y0066289D03*
X0068500Y0059203D03*
X0096000Y0091703D03*
X0096000Y0098789D03*
D11*
X0107457Y0125246D03*
X0114543Y0125246D03*
X0119957Y0125246D03*
X0127043Y0125246D03*
X0039543Y0127746D03*
X0032457Y0127746D03*
D12*
X0104100Y0108770D03*
X0104100Y0105620D03*
X0104100Y0102470D03*
X0104100Y0099321D03*
X0104100Y0096171D03*
X0104100Y0093022D03*
X0104100Y0089872D03*
X0104100Y0086722D03*
X0137900Y0086722D03*
X0137900Y0089872D03*
X0137900Y0093022D03*
X0137900Y0096171D03*
X0137900Y0099321D03*
X0137900Y0102470D03*
X0137900Y0105620D03*
X0137900Y0108770D03*
D13*
X0132024Y0114646D03*
X0128874Y0114646D03*
X0125724Y0114646D03*
X0122575Y0114646D03*
X0119425Y0114646D03*
X0116276Y0114646D03*
X0113126Y0114646D03*
X0109976Y0114646D03*
X0109976Y0080846D03*
X0113126Y0080846D03*
X0116276Y0080846D03*
X0119425Y0080846D03*
X0122575Y0080846D03*
X0125724Y0080846D03*
X0128874Y0080846D03*
X0132024Y0080846D03*
D14*
X0231000Y0097746D03*
X0241000Y0097746D03*
X0241000Y0107746D03*
X0231000Y0107746D03*
X0231000Y0117746D03*
X0241000Y0117746D03*
D15*
X0223953Y0139439D03*
X0213953Y0139439D03*
X0203953Y0139439D03*
X0193953Y0139439D03*
X0183953Y0139439D03*
X0173953Y0139439D03*
X0163953Y0139439D03*
X0153953Y0139439D03*
X0143953Y0139439D03*
X0133953Y0139439D03*
X0123953Y0139439D03*
X0113953Y0139439D03*
X0103953Y0139439D03*
X0093953Y0139439D03*
X0083953Y0139439D03*
X0073953Y0139439D03*
X0063953Y0139439D03*
X0053953Y0139439D03*
X0043953Y0139439D03*
X0033953Y0139439D03*
X0033953Y0149439D03*
X0043953Y0149439D03*
X0053953Y0149439D03*
X0063953Y0149439D03*
X0073953Y0149439D03*
X0083953Y0149439D03*
X0093953Y0149439D03*
X0103953Y0149439D03*
X0113953Y0149439D03*
X0123953Y0149439D03*
X0133953Y0149439D03*
X0143953Y0149439D03*
X0153953Y0149439D03*
X0163953Y0149439D03*
X0173953Y0149439D03*
X0183953Y0149439D03*
X0193953Y0149439D03*
X0203953Y0149439D03*
X0213953Y0149439D03*
X0223953Y0149439D03*
D16*
X0027260Y0017746D03*
X0034740Y0017746D03*
X0052260Y0017746D03*
X0059740Y0017746D03*
X0072260Y0020246D03*
X0079740Y0020246D03*
X0084760Y0067746D03*
X0092240Y0067746D03*
X0047240Y0067746D03*
X0039760Y0067746D03*
X0167260Y0112746D03*
X0174740Y0112746D03*
X0197260Y0112746D03*
X0204740Y0112746D03*
D17*
X0088500Y0021486D03*
X0088500Y0014006D03*
X0043500Y0014006D03*
X0043500Y0021486D03*
X0036000Y0106506D03*
X0036000Y0113986D03*
D18*
X0033500Y0054846D03*
X0028500Y0054846D03*
X0038500Y0054846D03*
X0043500Y0054846D03*
X0048500Y0054846D03*
X0053500Y0054846D03*
X0058500Y0054846D03*
X0063500Y0054846D03*
X0073500Y0054846D03*
X0078500Y0054846D03*
X0083500Y0054846D03*
X0088500Y0054846D03*
X0093500Y0054846D03*
X0098500Y0054846D03*
X0103500Y0054846D03*
X0108500Y0054846D03*
X0108500Y0030646D03*
X0103500Y0030646D03*
X0098500Y0030646D03*
X0093500Y0030646D03*
X0088500Y0030646D03*
X0083500Y0030646D03*
X0078500Y0030646D03*
X0073500Y0030646D03*
X0063500Y0030646D03*
X0058500Y0030646D03*
X0053500Y0030646D03*
X0048500Y0030646D03*
X0043500Y0030646D03*
X0038500Y0030646D03*
X0033500Y0030646D03*
X0028500Y0030646D03*
D19*
X0123992Y0039242D03*
X0133992Y0039242D03*
X0133520Y0055226D03*
X0143520Y0055226D03*
X0153520Y0055226D03*
X0163520Y0055226D03*
X0168520Y0065226D03*
X0158520Y0065226D03*
X0148520Y0065226D03*
X0138520Y0065226D03*
X0168008Y0039242D03*
X0178008Y0039242D03*
X0186000Y0039242D03*
X0196000Y0039242D03*
X0195528Y0055226D03*
X0205528Y0055226D03*
X0215528Y0055226D03*
X0225528Y0055226D03*
X0230528Y0065226D03*
X0220528Y0065226D03*
X0210528Y0065226D03*
X0200528Y0065226D03*
X0230016Y0039242D03*
X0240016Y0039242D03*
D20*
X0245016Y0050738D03*
X0118992Y0050738D03*
D21*
X0081000Y0092746D03*
X0081000Y0102746D03*
X0081000Y0112746D03*
X0166000Y0097746D03*
X0176000Y0097746D03*
X0196000Y0097746D03*
X0206000Y0097746D03*
D22*
X0067516Y0091722D03*
X0064957Y0091722D03*
X0062398Y0091722D03*
X0059839Y0091722D03*
X0057280Y0091722D03*
X0054720Y0091722D03*
X0052161Y0091722D03*
X0049602Y0091722D03*
X0047043Y0091722D03*
X0044484Y0091722D03*
X0044484Y0113770D03*
X0047043Y0113770D03*
X0049602Y0113770D03*
X0052161Y0113770D03*
X0054720Y0113770D03*
X0057280Y0113770D03*
X0059839Y0113770D03*
X0062398Y0113770D03*
X0064957Y0113770D03*
X0067516Y0113770D03*
D23*
X0044484Y0113770D02*
X0044268Y0113986D01*
X0042400Y0113986D01*
X0036000Y0113986D01*
X0096000Y0098789D02*
X0096531Y0099321D01*
X0100600Y0099321D01*
X0104100Y0099321D01*
X0119425Y0114646D02*
X0119425Y0118346D01*
X0119425Y0124715D01*
X0119957Y0125246D01*
X0114543Y0125246D01*
X0174740Y0112746D02*
X0176000Y0111486D01*
X0176000Y0097746D01*
X0206000Y0097746D02*
X0206000Y0111486D01*
X0204740Y0112746D01*
X0093500Y0066486D02*
X0093500Y0054846D01*
X0093500Y0066486D02*
X0092240Y0067746D01*
X0073500Y0054846D02*
X0072857Y0054846D01*
X0071478Y0056224D01*
X0068500Y0059203D01*
X0048500Y0054846D02*
X0048500Y0066486D01*
X0047240Y0067746D01*
X0028500Y0054846D02*
X0027857Y0054846D01*
X0023500Y0059203D01*
X0028500Y0030646D02*
X0028500Y0018986D01*
X0027260Y0017746D01*
X0033500Y0018986D02*
X0034740Y0017746D01*
X0033500Y0018986D02*
X0033500Y0030646D01*
X0043500Y0030646D02*
X0043500Y0021486D01*
X0052260Y0017746D02*
X0053500Y0018986D01*
X0053500Y0030646D01*
X0058500Y0030646D02*
X0058500Y0018986D01*
X0059740Y0017746D01*
X0072260Y0020246D02*
X0073500Y0021486D01*
X0073500Y0030646D01*
X0078500Y0030646D02*
X0078500Y0025346D01*
X0078500Y0021486D01*
X0079740Y0020246D01*
X0088500Y0021486D02*
X0088500Y0030646D01*
D24*
X0086200Y0026546D02*
X0086200Y0034946D01*
X0086800Y0035546D01*
X0125800Y0035546D01*
X0130000Y0039746D01*
X0130000Y0044546D01*
X0138400Y0052946D01*
X0138400Y0064946D01*
X0138520Y0065226D01*
X0144400Y0064946D02*
X0144400Y0063746D01*
X0146800Y0061346D01*
X0191200Y0061346D01*
X0223000Y0093146D01*
X0233200Y0093146D01*
X0235600Y0095546D01*
X0235600Y0113546D01*
X0231400Y0117746D01*
X0231000Y0117746D01*
X0236200Y0115946D02*
X0239800Y0112346D01*
X0243400Y0112346D01*
X0245800Y0109946D01*
X0245800Y0080546D01*
X0230800Y0065546D01*
X0230528Y0065226D01*
X0220600Y0065546D02*
X0220528Y0065226D01*
X0220000Y0064946D01*
X0210400Y0055346D01*
X0205600Y0055346D01*
X0205528Y0055226D01*
X0220600Y0065546D02*
X0241000Y0085946D01*
X0241000Y0097746D01*
X0231000Y0097746D02*
X0210400Y0118346D01*
X0119425Y0118346D01*
X0116276Y0114646D02*
X0116200Y0114146D01*
X0116200Y0112346D01*
X0110200Y0106346D01*
X0107800Y0103946D02*
X0106600Y0102746D01*
X0107800Y0101546D01*
X0107800Y0099746D01*
X0111400Y0099746D01*
X0111400Y0088946D01*
X0106600Y0084146D01*
X0091000Y0084146D01*
X0073600Y0066746D01*
X0068800Y0066746D01*
X0068500Y0066289D01*
X0068200Y0066746D01*
X0064600Y0066746D01*
X0044800Y0086546D01*
X0044800Y0091346D01*
X0044484Y0091722D01*
X0043600Y0096146D02*
X0037000Y0089546D01*
X0037000Y0064946D01*
X0041800Y0060146D01*
X0044800Y0060146D01*
X0046000Y0058946D01*
X0046000Y0050546D01*
X0050800Y0045746D01*
X0059200Y0045746D01*
X0063400Y0049946D01*
X0063400Y0054746D01*
X0063500Y0054846D01*
X0058500Y0054846D02*
X0058000Y0054746D01*
X0058000Y0051746D01*
X0055000Y0048746D01*
X0053200Y0050546D02*
X0051400Y0048746D01*
X0053200Y0050546D02*
X0053200Y0054746D01*
X0053500Y0054846D01*
X0043500Y0054846D02*
X0043000Y0054746D01*
X0043000Y0052346D01*
X0035800Y0045146D01*
X0034600Y0042746D02*
X0028600Y0048746D01*
X0028600Y0054146D01*
X0028500Y0054846D01*
X0033500Y0054846D02*
X0034000Y0055346D01*
X0034000Y0062546D01*
X0035800Y0064346D02*
X0038200Y0061946D01*
X0038200Y0055346D01*
X0038500Y0054846D01*
X0035800Y0064346D02*
X0035800Y0090146D01*
X0050200Y0104546D01*
X0064000Y0104546D01*
X0089200Y0129746D01*
X0226000Y0129746D01*
X0236200Y0119546D01*
X0236200Y0115946D01*
X0197260Y0112746D02*
X0197200Y0112946D01*
X0193600Y0116546D01*
X0173200Y0116546D01*
X0169600Y0112946D01*
X0167800Y0112946D01*
X0167260Y0112746D01*
X0167200Y0112346D01*
X0136600Y0112346D01*
X0134200Y0109946D01*
X0134200Y0099746D01*
X0137800Y0099746D01*
X0137900Y0099321D01*
X0138400Y0099146D01*
X0140200Y0099146D01*
X0158200Y0081146D01*
X0158200Y0065546D01*
X0158520Y0065226D01*
X0148520Y0065226D02*
X0148000Y0065546D01*
X0148000Y0070346D01*
X0130000Y0088346D01*
X0112600Y0088346D01*
X0095800Y0071546D01*
X0090400Y0071546D01*
X0087400Y0068546D01*
X0087400Y0060746D01*
X0086200Y0059546D01*
X0086200Y0050546D01*
X0074800Y0039146D01*
X0060400Y0039146D01*
X0053800Y0032546D01*
X0053800Y0031346D01*
X0053500Y0030646D01*
X0049000Y0030746D02*
X0048500Y0030646D01*
X0049000Y0030746D02*
X0049000Y0035546D01*
X0051400Y0037946D01*
X0053800Y0040346D02*
X0046600Y0040346D01*
X0038800Y0032546D01*
X0038800Y0030746D01*
X0038500Y0030646D01*
X0033500Y0030646D02*
X0033400Y0031346D01*
X0033400Y0036746D01*
X0035800Y0037946D02*
X0035800Y0022346D01*
X0043600Y0014546D01*
X0043500Y0014006D01*
X0043600Y0013946D01*
X0061600Y0013946D01*
X0063400Y0015746D01*
X0064600Y0014546D01*
X0088000Y0014546D01*
X0088500Y0014006D01*
X0088600Y0014546D01*
X0094000Y0014546D01*
X0108400Y0028946D01*
X0108400Y0030146D01*
X0108500Y0030646D01*
X0109000Y0030746D01*
X0118000Y0030746D01*
X0121600Y0034346D01*
X0134800Y0034346D01*
X0143200Y0042746D01*
X0143200Y0054746D01*
X0143520Y0055226D01*
X0137200Y0053546D02*
X0127000Y0043346D01*
X0122800Y0043346D01*
X0116200Y0036746D01*
X0086200Y0036746D01*
X0083800Y0034346D01*
X0083800Y0030746D01*
X0083500Y0030646D01*
X0086200Y0026546D02*
X0085000Y0025346D01*
X0078500Y0025346D01*
X0073500Y0030646D02*
X0073600Y0031346D01*
X0073600Y0032546D01*
X0085000Y0043946D01*
X0121600Y0043946D01*
X0133000Y0055346D01*
X0133520Y0055226D01*
X0137200Y0053546D02*
X0137200Y0057146D01*
X0125800Y0068546D01*
X0125800Y0080546D01*
X0125724Y0080846D01*
X0128800Y0081146D02*
X0128874Y0080846D01*
X0128800Y0081146D02*
X0128800Y0085946D01*
X0131374Y0089872D02*
X0126000Y0095246D01*
X0131374Y0089872D02*
X0137900Y0089872D01*
X0138400Y0087146D02*
X0137900Y0086722D01*
X0139600Y0087146D01*
X0139600Y0083546D01*
X0139600Y0087146D02*
X0138400Y0087146D01*
X0139600Y0087146D02*
X0148600Y0087146D01*
X0163600Y0093146D02*
X0191800Y0093146D01*
X0196000Y0097346D01*
X0196000Y0097746D01*
X0166000Y0097946D02*
X0166000Y0097746D01*
X0166000Y0097946D02*
X0155200Y0108746D01*
X0138400Y0108746D01*
X0137900Y0108770D01*
X0137900Y0105620D02*
X0138400Y0105146D01*
X0151600Y0105146D01*
X0163600Y0093146D01*
X0134200Y0099746D02*
X0111400Y0099746D01*
X0107800Y0099746D02*
X0107800Y0097946D01*
X0106600Y0096746D01*
X0104200Y0096746D01*
X0104100Y0096171D01*
X0101800Y0093146D02*
X0100600Y0094346D01*
X0100600Y0099321D01*
X0100600Y0102146D01*
X0099400Y0102146D01*
X0100600Y0102146D02*
X0100600Y0112346D01*
X0107200Y0118946D01*
X0107200Y0124946D01*
X0107457Y0125246D01*
X0110200Y0126146D02*
X0110200Y0120146D01*
X0107800Y0117746D01*
X0107800Y0103946D01*
X0106600Y0102746D02*
X0104200Y0102746D01*
X0104100Y0102470D01*
X0097000Y0096146D02*
X0093400Y0096146D01*
X0085600Y0103946D01*
X0085600Y0108146D01*
X0081000Y0112746D01*
X0076000Y0111146D02*
X0076000Y0114746D01*
X0089800Y0128546D01*
X0110200Y0128546D01*
X0111400Y0127346D01*
X0112600Y0128546D01*
X0122200Y0128546D01*
X0125200Y0125546D01*
X0127000Y0125546D01*
X0127043Y0125246D01*
X0111400Y0127346D02*
X0110200Y0126146D01*
X0113126Y0114646D02*
X0112600Y0114146D01*
X0112600Y0112346D01*
X0110200Y0109946D01*
X0097000Y0096146D02*
X0099400Y0093746D01*
X0099400Y0092546D01*
X0101800Y0090146D01*
X0103600Y0090146D01*
X0104100Y0089872D01*
X0103600Y0087146D02*
X0104100Y0086722D01*
X0103600Y0087146D02*
X0086800Y0087146D01*
X0081400Y0092546D01*
X0081000Y0092746D01*
X0084400Y0097946D02*
X0073600Y0097946D01*
X0067600Y0091946D01*
X0067516Y0091722D01*
X0064957Y0091722D02*
X0064600Y0091946D01*
X0064600Y0099746D01*
X0062200Y0102146D01*
X0059800Y0105746D02*
X0049600Y0105746D01*
X0044800Y0110546D01*
X0044800Y0113546D01*
X0044484Y0113770D01*
X0042400Y0113986D02*
X0042400Y0130946D01*
X0034000Y0139346D01*
X0033953Y0139439D01*
X0029800Y0137546D02*
X0032200Y0135146D01*
X0032200Y0127946D01*
X0032457Y0127746D01*
X0028600Y0125546D02*
X0035200Y0118946D01*
X0039400Y0123146D01*
X0039400Y0127346D01*
X0039543Y0127746D01*
X0028600Y0125546D02*
X0028600Y0150146D01*
X0032200Y0153746D01*
X0045400Y0153746D01*
X0049600Y0149546D01*
X0053800Y0149546D01*
X0053953Y0149439D01*
X0059800Y0151346D02*
X0062200Y0153746D01*
X0069400Y0153746D01*
X0073600Y0149546D01*
X0073953Y0149439D01*
X0068200Y0144746D02*
X0064000Y0148946D01*
X0063953Y0149439D01*
X0059800Y0151346D02*
X0059800Y0137546D01*
X0062200Y0135146D01*
X0062200Y0114146D01*
X0062398Y0113770D01*
X0064600Y0113546D02*
X0064957Y0113770D01*
X0064600Y0113546D02*
X0064600Y0110546D01*
X0059800Y0105746D01*
X0058600Y0108146D02*
X0057400Y0109346D01*
X0057400Y0113546D01*
X0057280Y0113770D01*
X0055000Y0114146D02*
X0054720Y0113770D01*
X0055000Y0114146D02*
X0055000Y0117746D01*
X0059800Y0122546D01*
X0059800Y0118946D02*
X0059800Y0114146D01*
X0059839Y0113770D01*
X0067516Y0113770D02*
X0067600Y0114146D01*
X0067600Y0137546D01*
X0068200Y0138146D01*
X0068200Y0144746D01*
X0033953Y0149439D02*
X0033400Y0148946D01*
X0029800Y0145346D01*
X0029800Y0137546D01*
X0035200Y0118946D02*
X0032200Y0115946D01*
X0032200Y0110546D01*
X0035800Y0106946D01*
X0036000Y0106506D01*
X0035800Y0106346D01*
X0023800Y0094346D01*
X0023800Y0066746D01*
X0023500Y0066289D01*
X0023200Y0066146D01*
X0023200Y0064346D01*
X0020200Y0061346D01*
X0020200Y0053546D01*
X0035800Y0037946D01*
X0034600Y0042746D02*
X0058000Y0042746D01*
X0071478Y0056224D01*
X0068500Y0059203D02*
X0067600Y0060146D01*
X0071800Y0064346D01*
X0073000Y0064346D01*
X0076000Y0067346D01*
X0084400Y0067346D01*
X0084760Y0067746D01*
X0085000Y0067946D01*
X0085000Y0074546D01*
X0083800Y0061946D02*
X0083800Y0055346D01*
X0083500Y0054846D01*
X0078500Y0054846D02*
X0078400Y0055346D01*
X0078400Y0056546D01*
X0073000Y0061946D01*
X0068500Y0059203D02*
X0068200Y0059546D01*
X0067600Y0060146D01*
X0056200Y0071546D01*
X0045400Y0071546D01*
X0041800Y0067946D01*
X0040000Y0067946D01*
X0039760Y0067746D01*
X0055000Y0079946D02*
X0055000Y0091346D01*
X0054720Y0091722D01*
X0056800Y0091946D02*
X0057280Y0091722D01*
X0056800Y0091946D02*
X0056800Y0094946D01*
X0055600Y0096146D01*
X0043600Y0096146D01*
X0057400Y0085946D02*
X0059800Y0088346D01*
X0059800Y0091346D01*
X0059839Y0091722D01*
X0062200Y0091946D02*
X0062398Y0091722D01*
X0062200Y0091946D02*
X0062200Y0098546D01*
X0076000Y0111146D02*
X0080800Y0106346D01*
X0080800Y0102746D01*
X0081000Y0102746D01*
X0083200Y0102746D01*
X0094000Y0091946D01*
X0095800Y0091946D01*
X0096000Y0091703D01*
X0101800Y0093146D02*
X0103600Y0093146D01*
X0104100Y0093022D01*
X0132024Y0080846D02*
X0132400Y0080546D01*
X0132400Y0076946D01*
X0144400Y0064946D01*
X0163000Y0054746D02*
X0163520Y0055226D01*
X0163000Y0054746D02*
X0163000Y0043946D01*
X0130600Y0011546D01*
X0035200Y0011546D01*
X0028600Y0018146D01*
X0027260Y0017746D01*
X0058500Y0030646D02*
X0058600Y0031346D01*
X0058600Y0032546D01*
X0062800Y0036746D01*
X0063500Y0030646D02*
X0063400Y0030146D01*
X0063400Y0015746D01*
X0088600Y0046346D02*
X0088600Y0054746D01*
X0088500Y0054846D01*
D25*
X0083800Y0061946D03*
X0073000Y0061946D03*
X0085000Y0074546D03*
X0057400Y0085946D03*
X0055000Y0079946D03*
X0062200Y0098546D03*
X0062200Y0102146D03*
X0058600Y0108146D03*
X0059800Y0118946D03*
X0059800Y0122546D03*
X0084400Y0097946D03*
X0099400Y0102146D03*
X0110200Y0106346D03*
X0110200Y0109946D03*
X0126000Y0095246D03*
X0128800Y0085946D03*
X0139600Y0083546D03*
X0148600Y0087146D03*
X0088600Y0046346D03*
X0062800Y0036746D03*
X0053800Y0040346D03*
X0051400Y0037946D03*
X0051400Y0048746D03*
X0055000Y0048746D03*
X0035800Y0045146D03*
X0033400Y0036746D03*
X0034000Y0062546D03*
D26*
X0014780Y0144439D03*
X0243126Y0144439D03*
M02*
