G75*
%MOIN*%
%OFA0B0*%
%FSLAX25Y25*%
%IPPOS*%
%LPD*%
%AMOC8*
5,1,8,0,0,1.08239X$1,22.5*
%
%ADD10OC8,0.08200*%
%ADD11OC8,0.06800*%
%ADD12C,0.14383*%
%ADD13C,0.06304*%
%ADD14C,0.10072*%
%ADD15C,0.08200*%
%ADD16C,0.03400*%
%ADD17C,0.24422*%
D10*
X0231000Y0097746D03*
X0241000Y0097746D03*
X0241000Y0107746D03*
X0231000Y0107746D03*
X0231000Y0117746D03*
X0241000Y0117746D03*
D11*
X0223953Y0139439D03*
X0213953Y0139439D03*
X0203953Y0139439D03*
X0193953Y0139439D03*
X0183953Y0139439D03*
X0173953Y0139439D03*
X0163953Y0139439D03*
X0153953Y0139439D03*
X0143953Y0139439D03*
X0133953Y0139439D03*
X0123953Y0139439D03*
X0113953Y0139439D03*
X0103953Y0139439D03*
X0093953Y0139439D03*
X0083953Y0139439D03*
X0073953Y0139439D03*
X0063953Y0139439D03*
X0053953Y0139439D03*
X0043953Y0139439D03*
X0033953Y0139439D03*
X0033953Y0149439D03*
X0043953Y0149439D03*
X0053953Y0149439D03*
X0063953Y0149439D03*
X0073953Y0149439D03*
X0083953Y0149439D03*
X0093953Y0149439D03*
X0103953Y0149439D03*
X0113953Y0149439D03*
X0123953Y0149439D03*
X0133953Y0149439D03*
X0143953Y0149439D03*
X0153953Y0149439D03*
X0163953Y0149439D03*
X0173953Y0149439D03*
X0183953Y0149439D03*
X0193953Y0149439D03*
X0203953Y0149439D03*
X0213953Y0149439D03*
X0223953Y0149439D03*
D12*
X0238008Y0022746D03*
X0126000Y0022746D03*
D13*
X0123992Y0039242D03*
X0133992Y0039242D03*
X0133520Y0055226D03*
X0143520Y0055226D03*
X0153520Y0055226D03*
X0163520Y0055226D03*
X0168520Y0065226D03*
X0158520Y0065226D03*
X0148520Y0065226D03*
X0138520Y0065226D03*
X0168008Y0039242D03*
X0178008Y0039242D03*
X0186000Y0039242D03*
X0196000Y0039242D03*
X0195528Y0055226D03*
X0205528Y0055226D03*
X0215528Y0055226D03*
X0225528Y0055226D03*
X0230528Y0065226D03*
X0220528Y0065226D03*
X0210528Y0065226D03*
X0200528Y0065226D03*
X0230016Y0039242D03*
X0240016Y0039242D03*
D14*
X0245016Y0050738D03*
X0118992Y0050738D03*
D15*
X0081000Y0092746D03*
X0081000Y0102746D03*
X0081000Y0112746D03*
X0166000Y0097746D03*
X0176000Y0097746D03*
X0196000Y0097746D03*
X0206000Y0097746D03*
D16*
X0033400Y0036746D03*
X0035800Y0045146D03*
X0051400Y0048746D03*
X0055000Y0048746D03*
X0053800Y0040346D03*
X0051400Y0037946D03*
X0062800Y0036746D03*
X0088600Y0046346D03*
X0083800Y0061946D03*
X0073000Y0061946D03*
X0085000Y0074546D03*
X0057400Y0085946D03*
X0055000Y0079946D03*
X0062200Y0098546D03*
X0062200Y0102146D03*
X0058600Y0108146D03*
X0059800Y0118946D03*
X0059800Y0122546D03*
X0084400Y0097946D03*
X0099400Y0102146D03*
X0110200Y0106346D03*
X0110200Y0109946D03*
X0126000Y0095246D03*
X0128800Y0085946D03*
X0139600Y0083546D03*
X0148600Y0087146D03*
X0034000Y0062546D03*
D17*
X0014780Y0144439D03*
X0243126Y0144439D03*
M02*
