%
M48
M72
T01C0.0100
T02C0.0315
T03C0.0320
T04C0.0350
T05C0.0400
T06C0.0618
T07C0.1083
T08C0.1358
%
T01
X3340Y3675
X3580Y4515
X5140Y4875
X5500Y4875
X5380Y4035
X5140Y3795
X6280Y3675
X8860Y4635
X8380Y6195
X7300Y6195
X8500Y7455
X5740Y8595
X5500Y7995
X6220Y9855
X6220Y10215
X5860Y10815
X5980Y11895
X5980Y12255
X8440Y9795
X9940Y10215
X11020Y10635
X11020Y10995
X12600Y9525
X12880Y8595
X13960Y8355
X14860Y8715
X3400Y6255
T02
X8100Y9275
X8100Y10275
X8100Y11275
T03
X16600Y9775
X17600Y9775
X19600Y9775
X20600Y9775
T04
X21053Y6523
X22053Y6523
X23053Y6523
X22553Y5523
X21553Y5523
X20553Y5523
X19553Y5523
X20053Y6523
X16852Y6523
X15852Y6523
X14852Y6523
X13852Y6523
X14352Y5523
X15352Y5523
X16352Y5523
X16801Y3924
X17801Y3924
X18600Y3924
X19600Y3924
X23002Y3924
X24002Y3924
X13399Y3924
X12399Y3924
X13352Y5523
T05
X23100Y9775
X24100Y9775
X24100Y10775
X23100Y10775
X23100Y11775
X24100Y11775
X22395Y13944
X21395Y13944
X20395Y13944
X19395Y13944
X18395Y13944
X17395Y13944
X16395Y13944
X15395Y13944
X14395Y13944
X13395Y13944
X12395Y13944
X11395Y13944
X10395Y13944
X9395Y13944
X8395Y13944
X7395Y13944
X6395Y13944
X5395Y13944
X4395Y13944
X3395Y13944
X3395Y14944
X4395Y14944
X5395Y14944
X6395Y14944
X7395Y14944
X8395Y14944
X9395Y14944
X10395Y14944
X11395Y14944
X12395Y14944
X13395Y14944
X14395Y14944
X15395Y14944
X16395Y14944
X17395Y14944
X18395Y14944
X19395Y14944
X20395Y14944
X21395Y14944
X22395Y14944
T06
X24502Y5074
X11899Y5074
T07
X1478Y14444
X24313Y14444
T08
X23801Y2275
X12600Y2275
M30
