G75*
%MOIN*%
%OFA0B0*%
%FSLAX25Y25*%
%IPPOS*%
%LPD*%
%AMOC8*
5,1,8,0,0,1.08239X$1,22.5*
%
%ADD10C,0.00300*%
%ADD11C,0.01000*%
%ADD12C,0.00800*%
%ADD13C,0.00500*%
%ADD14C,0.00600*%
%ADD15C,0.00700*%
%ADD16C,0.00100*%
D10*
X0006634Y0021150D02*
X0006017Y0021767D01*
X0006634Y0021150D02*
X0007868Y0021150D01*
X0008485Y0021767D01*
X0008485Y0023002D01*
X0007868Y0023619D01*
X0007251Y0023619D01*
X0006017Y0023002D01*
X0006017Y0024853D01*
X0008485Y0024853D01*
X0007868Y0031150D02*
X0006634Y0031150D01*
X0006017Y0031767D01*
X0006017Y0034236D01*
X0006634Y0034853D01*
X0007868Y0034853D01*
X0008485Y0034236D01*
X0008485Y0033002D02*
X0007251Y0033002D01*
X0008485Y0033002D02*
X0008485Y0031767D01*
X0007868Y0031150D01*
X0033517Y0048650D02*
X0033517Y0052353D01*
X0037200Y0052353D02*
X0039051Y0052353D01*
X0039669Y0051736D01*
X0039669Y0050502D01*
X0039051Y0049884D01*
X0037200Y0049884D01*
X0037200Y0048650D02*
X0037200Y0052353D01*
X0038434Y0049884D02*
X0039669Y0048650D01*
X0035985Y0048650D02*
X0033517Y0048650D01*
X0044017Y0043853D02*
X0044017Y0040150D01*
X0045868Y0040150D01*
X0046485Y0040767D01*
X0046485Y0043236D01*
X0045868Y0043853D01*
X0044017Y0043853D01*
X0047700Y0042619D02*
X0048317Y0042619D01*
X0048317Y0040150D01*
X0047700Y0040150D02*
X0048934Y0040150D01*
X0050155Y0040150D02*
X0052007Y0040150D01*
X0052624Y0040767D01*
X0052007Y0041384D01*
X0050772Y0041384D01*
X0050155Y0042002D01*
X0050772Y0042619D01*
X0052624Y0042619D01*
X0053838Y0042002D02*
X0053838Y0040767D01*
X0054456Y0040150D01*
X0056307Y0040150D01*
X0057522Y0040767D02*
X0058139Y0040150D01*
X0059373Y0040150D01*
X0059990Y0040767D01*
X0059990Y0042002D01*
X0059373Y0042619D01*
X0058139Y0042619D01*
X0057522Y0042002D01*
X0057522Y0040767D01*
X0056307Y0042619D02*
X0054456Y0042619D01*
X0053838Y0042002D01*
X0049434Y0037353D02*
X0049434Y0033650D01*
X0048200Y0033650D02*
X0050669Y0033650D01*
X0048200Y0036119D02*
X0049434Y0037353D01*
X0046985Y0036119D02*
X0045751Y0033650D01*
X0044517Y0036119D01*
X0048317Y0043853D02*
X0048317Y0044470D01*
X0055566Y0035502D02*
X0058035Y0035502D01*
X0062932Y0036736D02*
X0063550Y0037353D01*
X0064784Y0037353D01*
X0065401Y0036736D01*
X0065401Y0036119D01*
X0064784Y0035502D01*
X0065401Y0034884D01*
X0065401Y0034267D01*
X0064784Y0033650D01*
X0063550Y0033650D01*
X0062932Y0034267D01*
X0064167Y0035502D02*
X0064784Y0035502D01*
X0066616Y0033650D02*
X0069084Y0037353D01*
X0070299Y0036736D02*
X0070916Y0037353D01*
X0072150Y0037353D01*
X0072767Y0036736D01*
X0072767Y0036119D01*
X0070299Y0033650D01*
X0072767Y0033650D01*
X0073982Y0034267D02*
X0076451Y0036736D01*
X0076451Y0034267D01*
X0075833Y0033650D01*
X0074599Y0033650D01*
X0073982Y0034267D01*
X0073982Y0036736D01*
X0074599Y0037353D01*
X0075833Y0037353D01*
X0076451Y0036736D01*
X0077665Y0036119D02*
X0078899Y0037353D01*
X0078899Y0033650D01*
X0077665Y0033650D02*
X0080134Y0033650D01*
X0081348Y0033650D02*
X0081348Y0034267D01*
X0083817Y0036736D01*
X0083817Y0037353D01*
X0081348Y0037353D01*
X0081472Y0040150D02*
X0080238Y0040150D01*
X0079620Y0040767D01*
X0079620Y0042002D01*
X0080238Y0042619D01*
X0081472Y0042619D01*
X0082089Y0042002D01*
X0082089Y0041384D01*
X0079620Y0041384D01*
X0078406Y0042619D02*
X0076554Y0042619D01*
X0075937Y0042002D01*
X0075937Y0040767D01*
X0076554Y0040150D01*
X0078406Y0040150D01*
X0074723Y0040150D02*
X0074723Y0042002D01*
X0074106Y0042619D01*
X0072254Y0042619D01*
X0072254Y0040150D01*
X0071040Y0040150D02*
X0069188Y0040150D01*
X0068571Y0040767D01*
X0069188Y0041384D01*
X0071040Y0041384D01*
X0071040Y0042002D02*
X0071040Y0040150D01*
X0071040Y0042002D02*
X0070423Y0042619D01*
X0069188Y0042619D01*
X0067357Y0043236D02*
X0067357Y0040767D01*
X0066739Y0040150D01*
X0064888Y0040150D01*
X0064888Y0043853D01*
X0066739Y0043853D01*
X0067357Y0043236D01*
X0086987Y0043853D02*
X0086987Y0040150D01*
X0086987Y0042002D02*
X0088221Y0042002D01*
X0086987Y0043853D02*
X0089455Y0043853D01*
X0090670Y0043853D02*
X0091287Y0043853D01*
X0091287Y0040150D01*
X0090670Y0040150D02*
X0091904Y0040150D01*
X0093125Y0040767D02*
X0093742Y0040150D01*
X0094977Y0040150D01*
X0095594Y0040767D01*
X0095594Y0042002D01*
X0094977Y0042619D01*
X0093742Y0042619D01*
X0093125Y0042002D01*
X0093125Y0040767D01*
X0096808Y0040767D02*
X0097426Y0040150D01*
X0098660Y0040150D01*
X0099277Y0040767D01*
X0099277Y0042002D01*
X0098660Y0042619D01*
X0097426Y0042619D01*
X0096808Y0042002D01*
X0096808Y0040767D01*
X0100492Y0040150D02*
X0100492Y0042619D01*
X0101726Y0042619D02*
X0100492Y0041384D01*
X0101726Y0042619D02*
X0102343Y0042619D01*
X0102134Y0046150D02*
X0102134Y0049853D01*
X0101517Y0049853D02*
X0102751Y0049853D01*
X0102751Y0046150D02*
X0101517Y0046150D01*
X0113517Y0046767D02*
X0114134Y0046150D01*
X0115368Y0046150D01*
X0115985Y0046767D01*
X0115985Y0049236D01*
X0115368Y0049853D01*
X0114134Y0049853D01*
X0113517Y0049236D01*
X0113517Y0046767D01*
X0055985Y0005002D02*
X0053517Y0005002D01*
X0054751Y0006236D02*
X0054751Y0003767D01*
X0040669Y0011150D02*
X0038200Y0011150D01*
X0040669Y0013619D01*
X0040669Y0014236D01*
X0040051Y0014853D01*
X0038817Y0014853D01*
X0038200Y0014236D01*
X0035751Y0014853D02*
X0035751Y0011150D01*
X0034517Y0011150D02*
X0036985Y0011150D01*
X0034517Y0013619D02*
X0035751Y0014853D01*
X0012169Y0070650D02*
X0009700Y0070650D01*
X0009700Y0074353D01*
X0006017Y0074353D02*
X0006017Y0070650D01*
X0008485Y0070650D01*
X0007868Y0102650D02*
X0006634Y0102650D01*
X0006017Y0103267D01*
X0006017Y0106353D01*
X0008485Y0106353D02*
X0008485Y0103267D01*
X0007868Y0102650D01*
X0009700Y0102650D02*
X0012169Y0102650D01*
X0009700Y0102650D02*
X0009700Y0106353D01*
X0032017Y0106353D02*
X0032017Y0103267D01*
X0032634Y0102650D01*
X0033868Y0102650D01*
X0034485Y0103267D01*
X0034485Y0106353D01*
X0035700Y0106353D02*
X0037551Y0106353D01*
X0038169Y0105736D01*
X0038169Y0104502D01*
X0037551Y0103884D01*
X0035700Y0103884D01*
X0035700Y0102650D02*
X0035700Y0106353D01*
X0036934Y0103884D02*
X0038169Y0102650D01*
D11*
X0097867Y0051000D02*
X0119367Y0051000D01*
D12*
X0009867Y0015500D02*
X0009867Y0010500D01*
X0012367Y0008000D01*
X0017367Y0008000D01*
X0019867Y0010500D01*
X0019867Y0015500D01*
X0017367Y0018000D01*
X0019867Y0020500D01*
X0019867Y0025500D01*
X0017367Y0028000D01*
X0019867Y0030500D01*
X0019867Y0035500D01*
X0017367Y0038000D01*
X0012367Y0038000D01*
X0009867Y0035500D01*
X0009867Y0030500D01*
X0012367Y0028000D01*
X0009867Y0025500D01*
X0009867Y0020500D01*
X0012367Y0018000D01*
X0009867Y0015500D01*
X0022367Y0015500D02*
X0022367Y0010500D01*
X0024867Y0008000D01*
X0029867Y0008000D01*
X0032367Y0010500D01*
X0032367Y0015500D01*
X0029867Y0018000D01*
X0032367Y0020500D01*
X0032367Y0025500D01*
X0029867Y0028000D01*
X0032367Y0030500D01*
X0032367Y0035500D01*
X0029867Y0038000D01*
X0024867Y0038000D01*
X0022367Y0035500D01*
X0022367Y0030500D01*
X0024867Y0028000D01*
X0022367Y0025500D01*
X0022367Y0020500D01*
X0024867Y0018000D01*
X0022367Y0015500D01*
X0032642Y0019732D02*
X0032642Y0024063D01*
X0032642Y0019732D02*
X0034217Y0018157D01*
X0040516Y0018157D01*
X0042091Y0019732D01*
X0042091Y0024063D01*
X0042091Y0031937D02*
X0042091Y0037843D01*
X0032642Y0037843D01*
X0032642Y0031937D01*
X0029867Y0040500D02*
X0024867Y0040500D01*
X0022367Y0043000D01*
X0022367Y0048000D01*
X0024867Y0050500D01*
X0022367Y0053000D01*
X0022367Y0058000D01*
X0024867Y0060500D01*
X0022367Y0063000D01*
X0022367Y0068000D01*
X0024867Y0070500D01*
X0029867Y0070500D01*
X0032367Y0068000D01*
X0032367Y0063000D01*
X0029867Y0060500D01*
X0032367Y0058000D01*
X0032367Y0053000D01*
X0029867Y0050500D01*
X0032367Y0048000D01*
X0032367Y0043000D01*
X0029867Y0040500D01*
X0019867Y0043000D02*
X0019867Y0048000D01*
X0017367Y0050500D01*
X0019867Y0053000D01*
X0019867Y0058000D01*
X0017367Y0060500D01*
X0019867Y0063000D01*
X0019867Y0068000D01*
X0017367Y0070500D01*
X0012367Y0070500D01*
X0009867Y0068000D01*
X0009867Y0063000D01*
X0012367Y0060500D01*
X0009867Y0058000D01*
X0009867Y0053000D01*
X0012367Y0050500D01*
X0009867Y0048000D01*
X0009867Y0043000D01*
X0012367Y0040500D01*
X0017367Y0040500D01*
X0019867Y0043000D01*
X0049867Y0015500D02*
X0052367Y0018000D01*
X0057367Y0018000D01*
X0059867Y0015500D01*
X0062367Y0018000D01*
X0067367Y0018000D01*
X0069867Y0015500D01*
X0072367Y0018000D01*
X0077367Y0018000D01*
X0079867Y0015500D01*
X0082367Y0018000D01*
X0087367Y0018000D01*
X0089867Y0015500D01*
X0089867Y0010500D01*
X0087367Y0008000D01*
X0082367Y0008000D01*
X0079867Y0010500D01*
X0077367Y0008000D01*
X0072367Y0008000D01*
X0069867Y0010500D01*
X0067367Y0008000D01*
X0062367Y0008000D01*
X0059867Y0010500D01*
X0057367Y0008000D01*
X0052367Y0008000D01*
X0049867Y0010500D01*
X0049867Y0015500D01*
X0097367Y0015500D02*
X0097367Y0010500D01*
X0099867Y0008000D01*
X0114867Y0008000D01*
X0117367Y0010500D01*
X0117367Y0015500D01*
X0114867Y0018000D01*
X0099867Y0018000D01*
X0097367Y0020500D01*
X0097367Y0025500D01*
X0099867Y0028000D01*
X0114867Y0028000D01*
X0117367Y0030500D01*
X0117367Y0035500D01*
X0114867Y0038000D01*
X0099867Y0038000D01*
X0097367Y0035500D01*
X0097367Y0030500D01*
X0099867Y0028000D01*
X0099867Y0018000D02*
X0097367Y0015500D01*
X0114867Y0018000D02*
X0117367Y0020500D01*
X0117367Y0025500D01*
X0114867Y0028000D01*
X0118686Y0015500D02*
X0118686Y0010500D01*
X0117367Y0053000D02*
X0112367Y0053000D01*
X0109867Y0055500D01*
X0109867Y0060500D01*
X0112367Y0063000D01*
X0109867Y0065500D01*
X0109867Y0070500D01*
X0112367Y0073000D01*
X0109867Y0075500D01*
X0109867Y0080500D01*
X0112367Y0083000D01*
X0109867Y0085500D01*
X0109867Y0090500D01*
X0112367Y0093000D01*
X0109867Y0095500D01*
X0109867Y0100500D01*
X0112367Y0103000D01*
X0117367Y0103000D01*
X0119867Y0100500D01*
X0119867Y0095500D01*
X0117367Y0093000D01*
X0119867Y0090500D01*
X0119867Y0085500D01*
X0117367Y0083000D01*
X0119867Y0080500D01*
X0119867Y0075500D01*
X0117367Y0073000D01*
X0119867Y0070500D01*
X0119867Y0065500D01*
X0117367Y0063000D01*
X0119867Y0060500D01*
X0119867Y0055500D01*
X0117367Y0053000D01*
X0107367Y0055500D02*
X0107367Y0060500D01*
X0104867Y0063000D01*
X0107367Y0065500D01*
X0107367Y0070500D01*
X0104867Y0073000D01*
X0107367Y0075500D01*
X0107367Y0080500D01*
X0104867Y0083000D01*
X0107367Y0085500D01*
X0107367Y0090500D01*
X0104867Y0093000D01*
X0107367Y0095500D01*
X0107367Y0100500D01*
X0104867Y0103000D01*
X0099867Y0103000D01*
X0097367Y0100500D01*
X0097367Y0095500D01*
X0099867Y0093000D01*
X0097367Y0090500D01*
X0097367Y0085500D01*
X0099867Y0083000D01*
X0097367Y0080500D01*
X0097367Y0075500D01*
X0099867Y0073000D01*
X0097367Y0070500D01*
X0097367Y0065500D01*
X0099867Y0063000D01*
X0097367Y0060500D01*
X0097367Y0055500D01*
X0099867Y0053000D01*
X0104867Y0053000D01*
X0107367Y0055500D01*
X0032367Y0075500D02*
X0032367Y0080500D01*
X0029867Y0083000D01*
X0032367Y0085500D01*
X0032367Y0090500D01*
X0029867Y0093000D01*
X0032367Y0095500D01*
X0032367Y0100500D01*
X0029867Y0103000D01*
X0024867Y0103000D01*
X0022367Y0100500D01*
X0022367Y0095500D01*
X0024867Y0093000D01*
X0022367Y0090500D01*
X0022367Y0085500D01*
X0024867Y0083000D01*
X0022367Y0080500D01*
X0022367Y0075500D01*
X0024867Y0073000D01*
X0029867Y0073000D01*
X0032367Y0075500D01*
X0019867Y0075500D02*
X0019867Y0080500D01*
X0017367Y0083000D01*
X0019867Y0085500D01*
X0019867Y0090500D01*
X0017367Y0093000D01*
X0019867Y0095500D01*
X0019867Y0100500D01*
X0017367Y0103000D01*
X0012367Y0103000D01*
X0009867Y0100500D01*
X0009867Y0095500D01*
X0012367Y0093000D01*
X0009867Y0090500D01*
X0009867Y0085500D01*
X0012367Y0083000D01*
X0009867Y0080500D01*
X0009867Y0075500D01*
X0012367Y0073000D01*
X0017367Y0073000D01*
X0019867Y0075500D01*
D13*
X0019917Y0075953D02*
X0019917Y0072950D01*
X0015413Y0072950D01*
X0016163Y0077554D02*
X0019166Y0077554D01*
X0019917Y0078305D01*
X0019917Y0079806D01*
X0019166Y0080556D01*
X0016163Y0080556D01*
X0015413Y0079806D01*
X0015413Y0078305D01*
X0016163Y0077554D01*
X0016914Y0082158D02*
X0015413Y0083659D01*
X0016914Y0085160D01*
X0019917Y0085160D01*
X0019917Y0086762D02*
X0019917Y0089014D01*
X0019166Y0089764D01*
X0016163Y0089764D01*
X0015413Y0089014D01*
X0015413Y0086762D01*
X0019917Y0086762D01*
X0017665Y0085160D02*
X0017665Y0082158D01*
X0016914Y0082158D02*
X0019917Y0082158D01*
X0019917Y0091366D02*
X0016914Y0094368D01*
X0016163Y0094368D01*
X0015413Y0093618D01*
X0015413Y0092116D01*
X0016163Y0091366D01*
X0019917Y0091366D02*
X0019917Y0094368D01*
X0007417Y0094368D02*
X0007417Y0091366D01*
X0006666Y0089764D02*
X0003663Y0089764D01*
X0002913Y0089014D01*
X0002913Y0086762D01*
X0007417Y0086762D01*
X0007417Y0089014D01*
X0006666Y0089764D01*
X0004414Y0091366D02*
X0002913Y0092867D01*
X0007417Y0092867D01*
X0007417Y0085160D02*
X0004414Y0085160D01*
X0002913Y0083659D01*
X0004414Y0082158D01*
X0007417Y0082158D01*
X0006666Y0080556D02*
X0003663Y0080556D01*
X0002913Y0079806D01*
X0002913Y0078305D01*
X0003663Y0077554D01*
X0006666Y0077554D01*
X0007417Y0078305D01*
X0007417Y0079806D01*
X0006666Y0080556D01*
X0005165Y0082158D02*
X0005165Y0085160D01*
X0007417Y0075953D02*
X0007417Y0072950D01*
X0002913Y0072950D01*
X0003663Y0061868D02*
X0004414Y0061868D01*
X0005165Y0061118D01*
X0005915Y0061868D01*
X0006666Y0061868D01*
X0007417Y0061118D01*
X0007417Y0059616D01*
X0006666Y0058866D01*
X0005165Y0060367D02*
X0005165Y0061118D01*
X0003663Y0061868D02*
X0002913Y0061118D01*
X0002913Y0059616D01*
X0003663Y0058866D01*
X0003663Y0057264D02*
X0002913Y0056514D01*
X0002913Y0054262D01*
X0007417Y0054262D01*
X0007417Y0056514D01*
X0006666Y0057264D01*
X0003663Y0057264D01*
X0004414Y0052660D02*
X0007417Y0052660D01*
X0005165Y0052660D02*
X0005165Y0049658D01*
X0004414Y0049658D02*
X0002913Y0051159D01*
X0004414Y0052660D01*
X0004414Y0049658D02*
X0007417Y0049658D01*
X0006666Y0048056D02*
X0003663Y0048056D01*
X0002913Y0047306D01*
X0002913Y0045805D01*
X0003663Y0045054D01*
X0006666Y0045054D01*
X0007417Y0045805D01*
X0007417Y0047306D01*
X0006666Y0048056D01*
X0007417Y0043453D02*
X0007417Y0040450D01*
X0002913Y0040450D01*
X0015413Y0040450D02*
X0019917Y0040450D01*
X0019917Y0043453D01*
X0019166Y0045054D02*
X0019917Y0045805D01*
X0019917Y0047306D01*
X0019166Y0048056D01*
X0016163Y0048056D01*
X0015413Y0047306D01*
X0015413Y0045805D01*
X0016163Y0045054D01*
X0019166Y0045054D01*
X0019917Y0049658D02*
X0016914Y0049658D01*
X0015413Y0051159D01*
X0016914Y0052660D01*
X0019917Y0052660D01*
X0019917Y0054262D02*
X0019917Y0056514D01*
X0019166Y0057264D01*
X0016163Y0057264D01*
X0015413Y0056514D01*
X0015413Y0054262D01*
X0019917Y0054262D01*
X0017665Y0052660D02*
X0017665Y0049658D01*
X0017665Y0058866D02*
X0017665Y0061868D01*
X0019917Y0061118D02*
X0015413Y0061118D01*
X0017665Y0058866D01*
X0022313Y0036949D02*
X0022313Y0033946D01*
X0022313Y0035447D02*
X0026817Y0035447D01*
X0026066Y0032345D02*
X0022313Y0032345D01*
X0022313Y0029342D02*
X0026066Y0029342D01*
X0026817Y0030093D01*
X0026817Y0031594D01*
X0026066Y0032345D01*
X0026066Y0027741D02*
X0023063Y0027741D01*
X0022313Y0026990D01*
X0022313Y0025489D01*
X0023063Y0024738D01*
X0026066Y0024738D01*
X0026817Y0025489D01*
X0026817Y0026990D01*
X0026066Y0027741D01*
X0027567Y0023137D02*
X0027567Y0020134D01*
X0026817Y0018533D02*
X0025315Y0017032D01*
X0025315Y0017782D02*
X0025315Y0015530D01*
X0026817Y0015530D02*
X0022313Y0015530D01*
X0022313Y0017782D01*
X0023063Y0018533D01*
X0024565Y0018533D01*
X0025315Y0017782D01*
X0026817Y0013929D02*
X0022313Y0013929D01*
X0022313Y0010926D02*
X0026817Y0010926D01*
X0025315Y0012428D01*
X0026817Y0013929D01*
X0024565Y0009325D02*
X0023063Y0009325D01*
X0022313Y0008574D01*
X0022313Y0006322D01*
X0026817Y0006322D01*
X0025315Y0006322D02*
X0025315Y0008574D01*
X0024565Y0009325D01*
X0034813Y0012461D02*
X0034813Y0014713D01*
X0035563Y0015464D01*
X0037065Y0015464D01*
X0037815Y0014713D01*
X0037815Y0012461D01*
X0039317Y0012461D02*
X0034813Y0012461D01*
X0034813Y0017065D02*
X0039317Y0017065D01*
X0037815Y0018566D01*
X0039317Y0020068D01*
X0034813Y0020068D01*
X0034813Y0021669D02*
X0034813Y0023921D01*
X0035563Y0024671D01*
X0037065Y0024671D01*
X0037815Y0023921D01*
X0037815Y0021669D01*
X0039317Y0021669D02*
X0034813Y0021669D01*
X0037815Y0023170D02*
X0039317Y0024671D01*
X0040067Y0026273D02*
X0040067Y0029275D01*
X0039317Y0030877D02*
X0039317Y0032378D01*
X0039317Y0031627D02*
X0034813Y0031627D01*
X0034813Y0030877D02*
X0034813Y0032378D01*
X0034813Y0033946D02*
X0039317Y0036949D01*
X0034813Y0036949D01*
X0034813Y0033946D02*
X0039317Y0033946D01*
X0049817Y0024203D02*
X0049817Y0023453D01*
X0050567Y0022702D01*
X0052069Y0022702D01*
X0052819Y0021951D01*
X0052819Y0021201D01*
X0052069Y0020450D01*
X0050567Y0020450D01*
X0049817Y0021201D01*
X0049817Y0024203D02*
X0050567Y0024954D01*
X0052069Y0024954D01*
X0052819Y0024203D01*
X0054421Y0024954D02*
X0057423Y0024954D01*
X0055922Y0024954D02*
X0055922Y0020450D01*
X0059025Y0020450D02*
X0059025Y0024954D01*
X0061276Y0024954D01*
X0062027Y0024203D01*
X0062027Y0022702D01*
X0061276Y0021951D01*
X0059025Y0021951D01*
X0060526Y0021951D02*
X0062027Y0020450D01*
X0063628Y0020450D02*
X0065130Y0020450D01*
X0064379Y0020450D02*
X0064379Y0024954D01*
X0063628Y0024954D02*
X0065130Y0024954D01*
X0066698Y0024954D02*
X0068950Y0024954D01*
X0069700Y0024203D01*
X0069700Y0022702D01*
X0068950Y0021951D01*
X0066698Y0021951D01*
X0066698Y0020450D02*
X0066698Y0024954D01*
X0090113Y0014355D02*
X0094617Y0014355D01*
X0094617Y0012854D02*
X0094617Y0015856D01*
X0091614Y0012854D02*
X0090113Y0014355D01*
X0090113Y0011253D02*
X0090113Y0009751D01*
X0090113Y0010502D02*
X0093866Y0010502D01*
X0094617Y0009751D01*
X0094617Y0009001D01*
X0093866Y0008250D01*
X0094917Y0052950D02*
X0090413Y0052950D01*
X0090413Y0055202D01*
X0091163Y0055953D01*
X0094166Y0055953D01*
X0094917Y0055202D01*
X0094917Y0052950D01*
X0094917Y0057554D02*
X0091914Y0057554D01*
X0090413Y0059055D01*
X0091914Y0060556D01*
X0094917Y0060556D01*
X0092665Y0060556D02*
X0092665Y0057554D01*
X0090413Y0062158D02*
X0090413Y0065160D01*
X0090413Y0063659D02*
X0094917Y0063659D01*
X0094917Y0066762D02*
X0091914Y0066762D01*
X0090413Y0068263D01*
X0091914Y0069764D01*
X0094917Y0069764D01*
X0095667Y0071366D02*
X0095667Y0074368D01*
X0094917Y0075970D02*
X0094917Y0077471D01*
X0094917Y0076720D02*
X0090413Y0076720D01*
X0090413Y0075970D02*
X0090413Y0077471D01*
X0090413Y0079039D02*
X0094917Y0082041D01*
X0090413Y0082041D01*
X0090413Y0079039D02*
X0094917Y0079039D01*
X0102913Y0078222D02*
X0102913Y0076720D01*
X0103663Y0075970D01*
X0106666Y0075970D01*
X0107417Y0076720D01*
X0107417Y0078222D01*
X0106666Y0078972D01*
X0103663Y0078972D01*
X0102913Y0078222D01*
X0102913Y0080574D02*
X0106666Y0080574D01*
X0107417Y0081324D01*
X0107417Y0082825D01*
X0106666Y0083576D01*
X0102913Y0083576D01*
X0102913Y0085177D02*
X0102913Y0088180D01*
X0102913Y0086679D02*
X0107417Y0086679D01*
X0108167Y0074368D02*
X0108167Y0071366D01*
X0107417Y0069764D02*
X0104414Y0069764D01*
X0102913Y0068263D01*
X0104414Y0066762D01*
X0107417Y0066762D01*
X0105165Y0066762D02*
X0105165Y0069764D01*
X0102913Y0065160D02*
X0102913Y0062158D01*
X0102913Y0063659D02*
X0107417Y0063659D01*
X0107417Y0060556D02*
X0104414Y0060556D01*
X0102913Y0059055D01*
X0104414Y0057554D01*
X0107417Y0057554D01*
X0106666Y0055953D02*
X0103663Y0055953D01*
X0102913Y0055202D01*
X0102913Y0052950D01*
X0107417Y0052950D01*
X0107417Y0055202D01*
X0106666Y0055953D01*
X0105165Y0057554D02*
X0105165Y0060556D01*
X0092665Y0066762D02*
X0092665Y0069764D01*
D14*
X0094729Y0069319D02*
X0094729Y0071681D01*
X0090004Y0071681D02*
X0090004Y0069319D01*
X0090004Y0081819D02*
X0090004Y0084181D01*
X0094729Y0084181D02*
X0094729Y0081819D01*
X0094729Y0094319D02*
X0094729Y0096681D01*
X0090004Y0096681D02*
X0090004Y0094319D01*
X0079418Y0095201D02*
X0050516Y0095201D01*
X0039729Y0096819D02*
X0039729Y0099181D01*
X0035004Y0099181D02*
X0035004Y0096819D01*
X0035004Y0086681D02*
X0035004Y0084319D01*
X0039729Y0084319D02*
X0039729Y0086681D01*
X0039729Y0074181D02*
X0039729Y0071819D01*
X0035004Y0071819D02*
X0035004Y0074181D01*
X0050516Y0045799D02*
X0079418Y0045799D01*
X0073717Y0049300D02*
X0073719Y0049392D01*
X0073725Y0049483D01*
X0073735Y0049574D01*
X0073749Y0049665D01*
X0073767Y0049755D01*
X0073789Y0049844D01*
X0073814Y0049931D01*
X0073844Y0050018D01*
X0073877Y0050104D01*
X0073914Y0050187D01*
X0073954Y0050270D01*
X0073998Y0050350D01*
X0074046Y0050428D01*
X0074097Y0050505D01*
X0074151Y0050578D01*
X0074208Y0050650D01*
X0074269Y0050719D01*
X0074332Y0050785D01*
X0074398Y0050848D01*
X0074467Y0050909D01*
X0074539Y0050966D01*
X0074612Y0051020D01*
X0074689Y0051071D01*
X0074767Y0051119D01*
X0074847Y0051163D01*
X0074930Y0051203D01*
X0075013Y0051240D01*
X0075099Y0051273D01*
X0075186Y0051303D01*
X0075273Y0051328D01*
X0075362Y0051350D01*
X0075452Y0051368D01*
X0075543Y0051382D01*
X0075634Y0051392D01*
X0075725Y0051398D01*
X0075817Y0051400D01*
X0075909Y0051398D01*
X0076000Y0051392D01*
X0076091Y0051382D01*
X0076182Y0051368D01*
X0076272Y0051350D01*
X0076361Y0051328D01*
X0076448Y0051303D01*
X0076535Y0051273D01*
X0076621Y0051240D01*
X0076704Y0051203D01*
X0076787Y0051163D01*
X0076867Y0051119D01*
X0076945Y0051071D01*
X0077022Y0051020D01*
X0077095Y0050966D01*
X0077167Y0050909D01*
X0077236Y0050848D01*
X0077302Y0050785D01*
X0077365Y0050719D01*
X0077426Y0050650D01*
X0077483Y0050578D01*
X0077537Y0050505D01*
X0077588Y0050428D01*
X0077636Y0050350D01*
X0077680Y0050270D01*
X0077720Y0050187D01*
X0077757Y0050104D01*
X0077790Y0050018D01*
X0077820Y0049931D01*
X0077845Y0049844D01*
X0077867Y0049755D01*
X0077885Y0049665D01*
X0077899Y0049574D01*
X0077909Y0049483D01*
X0077915Y0049392D01*
X0077917Y0049300D01*
X0077915Y0049208D01*
X0077909Y0049117D01*
X0077899Y0049026D01*
X0077885Y0048935D01*
X0077867Y0048845D01*
X0077845Y0048756D01*
X0077820Y0048669D01*
X0077790Y0048582D01*
X0077757Y0048496D01*
X0077720Y0048413D01*
X0077680Y0048330D01*
X0077636Y0048250D01*
X0077588Y0048172D01*
X0077537Y0048095D01*
X0077483Y0048022D01*
X0077426Y0047950D01*
X0077365Y0047881D01*
X0077302Y0047815D01*
X0077236Y0047752D01*
X0077167Y0047691D01*
X0077095Y0047634D01*
X0077022Y0047580D01*
X0076945Y0047529D01*
X0076867Y0047481D01*
X0076787Y0047437D01*
X0076704Y0047397D01*
X0076621Y0047360D01*
X0076535Y0047327D01*
X0076448Y0047297D01*
X0076361Y0047272D01*
X0076272Y0047250D01*
X0076182Y0047232D01*
X0076091Y0047218D01*
X0076000Y0047208D01*
X0075909Y0047202D01*
X0075817Y0047200D01*
X0075725Y0047202D01*
X0075634Y0047208D01*
X0075543Y0047218D01*
X0075452Y0047232D01*
X0075362Y0047250D01*
X0075273Y0047272D01*
X0075186Y0047297D01*
X0075099Y0047327D01*
X0075013Y0047360D01*
X0074930Y0047397D01*
X0074847Y0047437D01*
X0074767Y0047481D01*
X0074689Y0047529D01*
X0074612Y0047580D01*
X0074539Y0047634D01*
X0074467Y0047691D01*
X0074398Y0047752D01*
X0074332Y0047815D01*
X0074269Y0047881D01*
X0074208Y0047950D01*
X0074151Y0048022D01*
X0074097Y0048095D01*
X0074046Y0048172D01*
X0073998Y0048250D01*
X0073954Y0048330D01*
X0073914Y0048413D01*
X0073877Y0048496D01*
X0073844Y0048582D01*
X0073814Y0048669D01*
X0073789Y0048756D01*
X0073767Y0048845D01*
X0073749Y0048935D01*
X0073735Y0049026D01*
X0073725Y0049117D01*
X0073719Y0049208D01*
X0073717Y0049300D01*
X0049729Y0026681D02*
X0049729Y0024319D01*
X0045004Y0024319D02*
X0045004Y0026681D01*
D15*
X0058880Y0038551D02*
X0059931Y0037500D01*
X0062033Y0037500D01*
X0063084Y0038551D01*
X0063084Y0043805D01*
X0065326Y0042754D02*
X0065326Y0041704D01*
X0066377Y0040653D01*
X0068478Y0040653D01*
X0069529Y0039602D01*
X0069529Y0038551D01*
X0068478Y0037500D01*
X0066377Y0037500D01*
X0065326Y0038551D01*
X0067427Y0036449D02*
X0067427Y0044856D01*
X0066377Y0043805D02*
X0068478Y0043805D01*
X0069529Y0042754D01*
X0071771Y0042754D02*
X0072822Y0043805D01*
X0074924Y0043805D01*
X0075975Y0042754D01*
X0075975Y0041704D01*
X0071771Y0037500D01*
X0075975Y0037500D01*
X0066377Y0043805D02*
X0065326Y0042754D01*
X0058880Y0043805D02*
X0058880Y0038551D01*
D16*
X0044354Y0037327D02*
X0044354Y0036827D01*
X0044103Y0036577D01*
X0043603Y0036577D01*
X0043603Y0037327D01*
X0043853Y0037578D01*
X0044103Y0037578D01*
X0044354Y0037327D01*
X0043603Y0036577D02*
X0043103Y0037077D01*
X0042852Y0037578D01*
X0043103Y0036104D02*
X0042852Y0035854D01*
X0042852Y0035354D01*
X0043103Y0035103D01*
X0044103Y0035103D01*
X0044354Y0035354D01*
X0044354Y0035854D01*
X0044103Y0036104D01*
X0044067Y0025024D02*
X0044067Y0024023D01*
X0044067Y0024524D02*
X0042565Y0024524D01*
X0043066Y0024023D01*
X0042816Y0023551D02*
X0042565Y0023301D01*
X0042565Y0022800D01*
X0042816Y0022550D01*
X0043816Y0022550D01*
X0044067Y0022800D01*
X0044067Y0023301D01*
X0043816Y0023551D01*
X0087816Y0067550D02*
X0088816Y0067550D01*
X0089067Y0067800D01*
X0089067Y0068301D01*
X0088816Y0068551D01*
X0089067Y0069023D02*
X0088066Y0070024D01*
X0087816Y0070024D01*
X0087565Y0069774D01*
X0087565Y0069273D01*
X0087816Y0069023D01*
X0087816Y0068551D02*
X0087565Y0068301D01*
X0087565Y0067800D01*
X0087816Y0067550D01*
X0089067Y0069023D02*
X0089067Y0070024D01*
X0095665Y0083103D02*
X0095665Y0083854D01*
X0095916Y0084104D01*
X0096416Y0084104D01*
X0096666Y0083854D01*
X0096666Y0083103D01*
X0097167Y0083103D02*
X0095665Y0083103D01*
X0096666Y0083604D02*
X0097167Y0084104D01*
X0097167Y0084577D02*
X0097167Y0085578D01*
X0097167Y0085077D02*
X0095665Y0085077D01*
X0096166Y0084577D01*
X0088816Y0092550D02*
X0087816Y0092550D01*
X0087565Y0092800D01*
X0087565Y0093301D01*
X0087816Y0093551D01*
X0088316Y0094023D02*
X0088316Y0095024D01*
X0089067Y0094774D02*
X0087565Y0094774D01*
X0088316Y0094023D01*
X0088816Y0093551D02*
X0089067Y0093301D01*
X0089067Y0092800D01*
X0088816Y0092550D01*
X0042167Y0087827D02*
X0042167Y0087327D01*
X0041916Y0087077D01*
X0041916Y0086604D02*
X0042167Y0086354D01*
X0042167Y0085854D01*
X0041916Y0085603D01*
X0040916Y0085603D01*
X0040665Y0085854D01*
X0040665Y0086354D01*
X0040916Y0086604D01*
X0040665Y0087077D02*
X0041416Y0087077D01*
X0041166Y0087577D01*
X0041166Y0087827D01*
X0041416Y0088078D01*
X0041916Y0088078D01*
X0042167Y0087827D01*
X0040665Y0088078D02*
X0040665Y0087077D01*
X0040665Y0098103D02*
X0040665Y0098854D01*
X0040916Y0099104D01*
X0041416Y0099104D01*
X0041666Y0098854D01*
X0041666Y0098103D01*
X0042167Y0098103D02*
X0040665Y0098103D01*
X0041666Y0098604D02*
X0042167Y0099104D01*
X0041916Y0099577D02*
X0042167Y0099827D01*
X0042167Y0100327D01*
X0041916Y0100578D01*
X0041666Y0100578D01*
X0041416Y0100327D01*
X0041416Y0100077D01*
X0041416Y0100327D02*
X0041166Y0100578D01*
X0040916Y0100578D01*
X0040665Y0100327D01*
X0040665Y0099827D01*
X0040916Y0099577D01*
X0034067Y0072524D02*
X0034067Y0071523D01*
X0033066Y0072524D01*
X0032816Y0072524D01*
X0032565Y0072274D01*
X0032565Y0071773D01*
X0032816Y0071523D01*
X0032816Y0071051D02*
X0033316Y0071051D01*
X0033566Y0070801D01*
X0033566Y0070050D01*
X0033566Y0070550D02*
X0034067Y0071051D01*
X0034067Y0070050D02*
X0032565Y0070050D01*
X0032565Y0070801D01*
X0032816Y0071051D01*
M02*
