G75*
%MOIN*%
%OFA0B0*%
%FSLAX25Y25*%
%IPPOS*%
%LPD*%
%AMOC8*
5,1,8,0,0,1.08239X$1,22.5*
%
%ADD10C,0.00500*%
%ADD11C,0.00400*%
%ADD12C,0.00800*%
%ADD13C,0.00600*%
%ADD14C,0.00100*%
D10*
X0060536Y0022843D02*
X0062898Y0022843D01*
X0060536Y0022843D02*
X0060536Y0028157D01*
X0066835Y0022843D02*
X0069197Y0022843D01*
X0069197Y0028157D01*
X0070536Y0028157D02*
X0070536Y0022843D01*
X0072898Y0022843D01*
X0076835Y0022843D02*
X0079197Y0022843D01*
X0079197Y0028157D01*
X0080536Y0028157D02*
X0080536Y0022843D01*
X0082898Y0022843D01*
X0086835Y0022843D02*
X0089197Y0022843D01*
X0089197Y0028157D01*
D11*
X0059271Y0015304D02*
X0056201Y0015304D01*
X0057736Y0015304D02*
X0057736Y0010700D01*
X0060805Y0010700D02*
X0063875Y0010700D01*
X0063875Y0015304D01*
X0060805Y0015304D01*
X0062340Y0013002D02*
X0063875Y0013002D01*
X0065409Y0015304D02*
X0068479Y0015304D01*
X0068479Y0010700D01*
X0067736Y0010700D02*
X0067736Y0015304D01*
X0069271Y0015304D02*
X0066201Y0015304D01*
X0066944Y0013002D02*
X0068479Y0013002D01*
X0070013Y0013002D02*
X0073082Y0013002D01*
X0072340Y0013002D02*
X0073875Y0013002D01*
X0076152Y0013002D02*
X0077686Y0013002D01*
X0076944Y0013002D02*
X0078479Y0013002D01*
X0080013Y0013002D02*
X0083082Y0013002D01*
X0082340Y0013002D02*
X0083875Y0013002D01*
X0082290Y0011467D02*
X0081523Y0010700D01*
X0079988Y0010700D01*
X0079221Y0011467D01*
X0079221Y0015304D01*
X0079271Y0015304D02*
X0076201Y0015304D01*
X0075409Y0015304D02*
X0078479Y0015304D01*
X0078479Y0010700D01*
X0077736Y0010700D02*
X0077736Y0015304D01*
X0077686Y0015304D02*
X0077686Y0010700D01*
X0074617Y0010700D01*
X0073875Y0010700D02*
X0070805Y0010700D01*
X0073875Y0010700D02*
X0073875Y0015304D01*
X0070805Y0015304D01*
X0074617Y0015304D02*
X0077686Y0015304D01*
X0080805Y0015304D02*
X0083875Y0015304D01*
X0083875Y0010700D01*
X0080805Y0010700D01*
X0082290Y0011467D02*
X0082290Y0015304D01*
X0084617Y0015304D02*
X0084617Y0010700D01*
X0087686Y0015304D01*
X0087686Y0010700D01*
X0086894Y0010700D02*
X0083825Y0010700D01*
X0086894Y0010700D02*
X0086894Y0015304D01*
X0085409Y0015304D02*
X0088478Y0015304D01*
X0088478Y0010700D01*
X0089196Y0010700D02*
X0091498Y0010700D01*
X0091498Y0015304D01*
X0089196Y0015304D01*
X0088429Y0014537D01*
X0088429Y0013769D01*
X0089196Y0013002D01*
X0091498Y0013002D01*
X0090756Y0013002D02*
X0092290Y0013002D01*
X0093082Y0013002D02*
X0090013Y0013002D01*
X0089196Y0013002D02*
X0088429Y0012235D01*
X0088429Y0011467D01*
X0089196Y0010700D01*
X0089221Y0010700D02*
X0092290Y0010700D01*
X0092290Y0015304D01*
X0089221Y0015304D01*
X0088478Y0013002D02*
X0086944Y0013002D01*
X0093825Y0015304D02*
X0096894Y0015304D01*
X0096894Y0010700D01*
X0093825Y0010700D01*
X0094617Y0011467D02*
X0094617Y0014537D01*
X0095384Y0015304D01*
X0097686Y0015304D01*
X0097686Y0010700D01*
X0095384Y0010700D01*
X0094617Y0011467D01*
X0095360Y0013002D02*
X0096894Y0013002D01*
X0098429Y0013002D02*
X0099196Y0012235D01*
X0101498Y0012235D01*
X0100756Y0013002D02*
X0102290Y0013002D01*
X0103033Y0013002D02*
X0103033Y0011467D01*
X0103800Y0010700D01*
X0105335Y0010700D01*
X0106102Y0011467D01*
X0106102Y0014537D01*
X0105335Y0015304D01*
X0103800Y0015304D01*
X0103033Y0014537D01*
X0103825Y0014537D02*
X0104592Y0015304D01*
X0106894Y0015304D01*
X0106894Y0010700D01*
X0106894Y0012235D02*
X0104592Y0012235D01*
X0103825Y0013002D01*
X0103825Y0014537D01*
X0104567Y0013002D02*
X0103033Y0013002D01*
X0102290Y0015304D02*
X0102290Y0010700D01*
X0099221Y0010700D01*
X0098429Y0010700D02*
X0099964Y0012235D01*
X0098429Y0013002D02*
X0098429Y0014537D01*
X0099196Y0015304D01*
X0101498Y0015304D01*
X0101498Y0010700D01*
X0103825Y0010700D02*
X0105360Y0012235D01*
X0102290Y0015304D02*
X0099221Y0015304D01*
X0073899Y0095700D02*
X0072365Y0095700D01*
X0071597Y0096467D01*
X0071597Y0100304D01*
X0070063Y0099537D02*
X0069295Y0100304D01*
X0067761Y0100304D01*
X0066993Y0099537D01*
X0065459Y0098769D02*
X0063924Y0100304D01*
X0063924Y0095700D01*
X0062390Y0095700D02*
X0065459Y0095700D01*
X0066993Y0096467D02*
X0066993Y0097235D01*
X0067761Y0098002D01*
X0069295Y0098002D01*
X0070063Y0098769D01*
X0070063Y0099537D01*
X0068528Y0101071D02*
X0068528Y0094933D01*
X0067761Y0095700D02*
X0066993Y0096467D01*
X0067761Y0095700D02*
X0069295Y0095700D01*
X0070063Y0096467D01*
X0073899Y0095700D02*
X0074667Y0096467D01*
X0074667Y0100304D01*
D12*
X0074906Y0088965D02*
X0074906Y0072035D01*
X0054827Y0072035D01*
X0054827Y0088965D01*
X0074906Y0088965D01*
X0071363Y0074398D02*
X0071365Y0074467D01*
X0071371Y0074535D01*
X0071381Y0074603D01*
X0071395Y0074670D01*
X0071413Y0074737D01*
X0071434Y0074802D01*
X0071460Y0074866D01*
X0071489Y0074928D01*
X0071521Y0074988D01*
X0071557Y0075047D01*
X0071597Y0075103D01*
X0071639Y0075157D01*
X0071685Y0075208D01*
X0071734Y0075257D01*
X0071785Y0075303D01*
X0071839Y0075345D01*
X0071895Y0075385D01*
X0071953Y0075421D01*
X0072014Y0075453D01*
X0072076Y0075482D01*
X0072140Y0075508D01*
X0072205Y0075529D01*
X0072272Y0075547D01*
X0072339Y0075561D01*
X0072407Y0075571D01*
X0072475Y0075577D01*
X0072544Y0075579D01*
X0072613Y0075577D01*
X0072681Y0075571D01*
X0072749Y0075561D01*
X0072816Y0075547D01*
X0072883Y0075529D01*
X0072948Y0075508D01*
X0073012Y0075482D01*
X0073074Y0075453D01*
X0073134Y0075421D01*
X0073193Y0075385D01*
X0073249Y0075345D01*
X0073303Y0075303D01*
X0073354Y0075257D01*
X0073403Y0075208D01*
X0073449Y0075157D01*
X0073491Y0075103D01*
X0073531Y0075047D01*
X0073567Y0074988D01*
X0073599Y0074928D01*
X0073628Y0074866D01*
X0073654Y0074802D01*
X0073675Y0074737D01*
X0073693Y0074670D01*
X0073707Y0074603D01*
X0073717Y0074535D01*
X0073723Y0074467D01*
X0073725Y0074398D01*
X0073723Y0074329D01*
X0073717Y0074261D01*
X0073707Y0074193D01*
X0073693Y0074126D01*
X0073675Y0074059D01*
X0073654Y0073994D01*
X0073628Y0073930D01*
X0073599Y0073868D01*
X0073567Y0073807D01*
X0073531Y0073749D01*
X0073491Y0073693D01*
X0073449Y0073639D01*
X0073403Y0073588D01*
X0073354Y0073539D01*
X0073303Y0073493D01*
X0073249Y0073451D01*
X0073193Y0073411D01*
X0073135Y0073375D01*
X0073074Y0073343D01*
X0073012Y0073314D01*
X0072948Y0073288D01*
X0072883Y0073267D01*
X0072816Y0073249D01*
X0072749Y0073235D01*
X0072681Y0073225D01*
X0072613Y0073219D01*
X0072544Y0073217D01*
X0072475Y0073219D01*
X0072407Y0073225D01*
X0072339Y0073235D01*
X0072272Y0073249D01*
X0072205Y0073267D01*
X0072140Y0073288D01*
X0072076Y0073314D01*
X0072014Y0073343D01*
X0071953Y0073375D01*
X0071895Y0073411D01*
X0071839Y0073451D01*
X0071785Y0073493D01*
X0071734Y0073539D01*
X0071685Y0073588D01*
X0071639Y0073639D01*
X0071597Y0073693D01*
X0071557Y0073749D01*
X0071521Y0073807D01*
X0071489Y0073868D01*
X0071460Y0073930D01*
X0071434Y0073994D01*
X0071413Y0074059D01*
X0071395Y0074126D01*
X0071381Y0074193D01*
X0071371Y0074261D01*
X0071365Y0074329D01*
X0071363Y0074398D01*
D13*
X0070004Y0059181D02*
X0070004Y0056819D01*
X0074729Y0056819D02*
X0074729Y0059181D01*
D14*
X0069068Y0058854D02*
X0069068Y0058354D01*
X0068818Y0058103D01*
X0067817Y0058103D01*
X0067567Y0058354D01*
X0067567Y0058854D01*
X0067817Y0059104D01*
X0067817Y0059577D02*
X0067567Y0059827D01*
X0067567Y0060327D01*
X0067817Y0060578D01*
X0068067Y0060578D01*
X0068317Y0060327D01*
X0068317Y0060077D01*
X0068317Y0060327D02*
X0068568Y0060578D01*
X0068818Y0060578D01*
X0069068Y0060327D01*
X0069068Y0059827D01*
X0068818Y0059577D01*
X0068818Y0059104D02*
X0069068Y0058854D01*
M02*
