G75*
%MOIN*%
%OFA0B0*%
%FSLAX25Y25*%
%IPPOS*%
%LPD*%
%AMOC8*
5,1,8,0,0,1.08239X$1,22.5*
%
%ADD10R,0.02600X0.08000*%
%ADD11R,0.03150X0.04724*%
%ADD12R,0.02756X0.05118*%
%ADD13C,0.05504*%
%ADD14C,0.09272*%
%ADD15C,0.01000*%
%ADD16C,0.04000*%
D10*
X0082510Y0032200D03*
X0087510Y0032200D03*
X0092510Y0032200D03*
X0097510Y0032200D03*
X0102510Y0032200D03*
X0107510Y0032200D03*
X0112510Y0032200D03*
X0117510Y0032200D03*
X0117510Y0056400D03*
X0112510Y0056400D03*
X0107510Y0056400D03*
X0102510Y0056400D03*
X0097510Y0056400D03*
X0092510Y0056400D03*
X0087510Y0056400D03*
X0082510Y0056400D03*
X0082510Y0087200D03*
X0087510Y0087200D03*
X0092510Y0087200D03*
X0097510Y0087200D03*
X0102510Y0087200D03*
X0107510Y0087200D03*
X0112510Y0087200D03*
X0117510Y0087200D03*
X0117510Y0111400D03*
X0112510Y0111400D03*
X0107510Y0111400D03*
X0102510Y0111400D03*
X0097510Y0111400D03*
X0092510Y0111400D03*
X0087510Y0111400D03*
X0082510Y0111400D03*
D11*
X0078553Y0114300D03*
X0071467Y0114300D03*
X0071467Y0059300D03*
X0078553Y0059300D03*
D12*
X0076270Y0071800D03*
X0083750Y0071800D03*
X0093770Y0071800D03*
X0101250Y0071800D03*
X0111270Y0071800D03*
X0118750Y0071800D03*
X0101250Y0124300D03*
X0093770Y0124300D03*
X0093770Y0016800D03*
X0101250Y0016800D03*
X0111270Y0016800D03*
X0118750Y0016800D03*
X0083750Y0016800D03*
X0076270Y0016800D03*
D13*
X0053750Y0044044D03*
X0045758Y0048060D03*
X0053750Y0052036D03*
X0045758Y0056052D03*
X0053750Y0060028D03*
X0045758Y0064044D03*
X0053750Y0091564D03*
X0045758Y0095580D03*
X0053750Y0099556D03*
X0045758Y0103572D03*
X0053750Y0107548D03*
X0045758Y0111564D03*
X0133514Y0115835D03*
X0143514Y0110835D03*
X0133514Y0105835D03*
X0143514Y0100835D03*
X0133514Y0095835D03*
X0143514Y0090835D03*
X0159498Y0091308D03*
X0159498Y0081308D03*
X0159498Y0073316D03*
X0159498Y0063316D03*
X0143514Y0058828D03*
X0133514Y0063828D03*
X0133514Y0053828D03*
X0143514Y0048828D03*
X0133514Y0043828D03*
X0143514Y0038828D03*
X0133514Y0033828D03*
X0143514Y0028828D03*
X0159498Y0029300D03*
X0159498Y0019300D03*
X0143514Y0120835D03*
X0133514Y0125835D03*
X0159498Y0125324D03*
X0159498Y0135324D03*
D14*
X0148002Y0140324D03*
X0148002Y0014300D03*
D15*
X0052310Y0039600D02*
X0049610Y0042300D01*
X0049610Y0045900D01*
X0050510Y0046800D01*
X0050510Y0049500D01*
X0046010Y0054000D01*
X0046010Y0055800D01*
X0045758Y0056052D01*
X0053750Y0052036D02*
X0054110Y0051300D01*
X0060410Y0045000D01*
X0091910Y0045000D01*
X0101810Y0035100D01*
X0101810Y0032400D01*
X0102510Y0032200D01*
X0097510Y0032200D02*
X0097310Y0031500D01*
X0097310Y0029700D01*
X0094610Y0027000D01*
X0094610Y0017100D01*
X0093770Y0016800D01*
X0101250Y0016800D02*
X0101810Y0016200D01*
X0105410Y0016200D01*
X0109010Y0012600D01*
X0120710Y0012600D01*
X0121610Y0013500D01*
X0121610Y0027900D01*
X0134210Y0027900D01*
X0143210Y0036900D01*
X0143210Y0038700D01*
X0143514Y0038828D01*
X0137810Y0042300D02*
X0137810Y0043200D01*
X0143210Y0048600D01*
X0143514Y0048828D01*
X0147710Y0050400D02*
X0147710Y0027000D01*
X0131510Y0010800D01*
X0089210Y0010800D01*
X0083810Y0016200D01*
X0083750Y0016800D01*
X0083810Y0017100D01*
X0083810Y0026100D01*
X0087410Y0029700D01*
X0087410Y0031500D01*
X0087510Y0032200D01*
X0091910Y0032400D02*
X0091910Y0035100D01*
X0087410Y0039600D01*
X0052310Y0039600D01*
X0069410Y0050400D02*
X0041510Y0078300D01*
X0041510Y0099900D01*
X0045110Y0103500D01*
X0045758Y0103572D01*
X0053750Y0107548D02*
X0054110Y0108000D01*
X0064910Y0118800D01*
X0073910Y0118800D01*
X0078410Y0114300D01*
X0078553Y0114300D01*
X0079310Y0114300D01*
X0080210Y0113400D01*
X0091010Y0124200D01*
X0093710Y0124200D01*
X0093770Y0124300D01*
X0101250Y0124300D02*
X0101810Y0124200D01*
X0101810Y0111600D01*
X0102510Y0111400D01*
X0098210Y0110700D02*
X0098210Y0108000D01*
X0106310Y0099900D01*
X0136010Y0099900D01*
X0143210Y0092700D01*
X0143210Y0090900D01*
X0143514Y0090835D01*
X0147710Y0089100D02*
X0147710Y0097200D01*
X0144110Y0100800D01*
X0143514Y0100835D01*
X0143210Y0101700D01*
X0137810Y0107100D01*
X0137810Y0108000D01*
X0134210Y0111600D01*
X0134210Y0115200D01*
X0133514Y0115835D01*
X0137810Y0117900D02*
X0135110Y0120600D01*
X0132410Y0120600D01*
X0128810Y0117000D01*
X0128810Y0110700D01*
X0133310Y0106200D01*
X0133514Y0105835D01*
X0137810Y0110700D02*
X0137810Y0117900D01*
X0143514Y0120835D02*
X0144110Y0120600D01*
X0151310Y0113400D01*
X0151310Y0087300D01*
X0146810Y0082800D01*
X0145910Y0082800D01*
X0128810Y0065700D01*
X0128810Y0058500D01*
X0120710Y0050400D01*
X0100910Y0050400D01*
X0098210Y0053100D01*
X0098210Y0055800D01*
X0097510Y0056400D01*
X0101810Y0056700D02*
X0102510Y0056400D01*
X0101810Y0056700D02*
X0101810Y0071100D01*
X0101250Y0071800D01*
X0097310Y0069300D02*
X0097310Y0079200D01*
X0100010Y0081900D02*
X0098210Y0083700D01*
X0098210Y0086400D01*
X0097510Y0087200D01*
X0092510Y0087200D02*
X0091910Y0087300D01*
X0091910Y0090000D01*
X0089210Y0092700D01*
X0068510Y0092700D01*
X0050510Y0074700D01*
X0062210Y0063000D02*
X0074810Y0063000D01*
X0078410Y0059400D01*
X0078553Y0059300D01*
X0079310Y0058500D01*
X0080210Y0057600D01*
X0093710Y0071100D01*
X0093770Y0071800D01*
X0097310Y0069300D02*
X0092810Y0064800D01*
X0092810Y0056700D01*
X0092510Y0056400D01*
X0087510Y0056400D02*
X0087410Y0055800D01*
X0087410Y0054000D01*
X0083810Y0050400D01*
X0069410Y0050400D01*
X0071210Y0058500D02*
X0066710Y0058500D01*
X0071210Y0058500D02*
X0071467Y0059300D01*
X0080210Y0057600D02*
X0082010Y0055800D01*
X0082510Y0056400D01*
X0081110Y0066600D02*
X0076610Y0071100D01*
X0076270Y0071800D01*
X0076610Y0072000D01*
X0076610Y0081000D01*
X0082010Y0086400D01*
X0082510Y0087200D01*
X0087410Y0086400D02*
X0087410Y0084600D01*
X0083810Y0081000D01*
X0083810Y0072000D01*
X0083750Y0071800D01*
X0083810Y0071100D01*
X0088310Y0071100D01*
X0100010Y0081900D02*
X0100910Y0081900D01*
X0110810Y0072000D01*
X0111270Y0071800D01*
X0118010Y0072000D02*
X0118750Y0071800D01*
X0118010Y0072000D02*
X0118010Y0086400D01*
X0117510Y0087200D01*
X0118010Y0086400D02*
X0145010Y0086400D01*
X0147710Y0089100D01*
X0149510Y0088200D02*
X0149510Y0100800D01*
X0144110Y0106200D01*
X0142310Y0106200D01*
X0137810Y0110700D01*
X0133310Y0096300D02*
X0133514Y0095835D01*
X0133310Y0096300D02*
X0105410Y0096300D01*
X0092810Y0108900D01*
X0092810Y0110700D01*
X0092510Y0111400D01*
X0087510Y0111400D02*
X0087410Y0110700D01*
X0087410Y0108900D01*
X0073010Y0094500D01*
X0063110Y0094500D01*
X0055910Y0087300D01*
X0051410Y0087300D01*
X0046010Y0092700D01*
X0046010Y0095400D01*
X0045758Y0095580D01*
X0053750Y0099556D02*
X0054110Y0099900D01*
X0056810Y0102600D01*
X0062210Y0102600D01*
X0071210Y0106200D02*
X0056810Y0091800D01*
X0054110Y0091800D01*
X0053750Y0091564D01*
X0071210Y0106200D02*
X0071210Y0114300D01*
X0071467Y0114300D01*
X0080210Y0113400D02*
X0082010Y0111600D01*
X0082510Y0111400D01*
X0097510Y0111400D02*
X0098210Y0110700D01*
X0087510Y0087200D02*
X0087410Y0086400D01*
X0108110Y0063900D02*
X0108110Y0056700D01*
X0107510Y0056400D01*
X0112510Y0056400D02*
X0112610Y0056700D01*
X0112610Y0059400D01*
X0137810Y0084600D01*
X0145910Y0084600D01*
X0149510Y0088200D01*
X0133514Y0063828D02*
X0134210Y0063000D01*
X0138710Y0058500D01*
X0138710Y0057600D01*
X0143210Y0053100D01*
X0145010Y0053100D01*
X0147710Y0050400D01*
X0149510Y0051300D02*
X0149510Y0026100D01*
X0130610Y0007200D01*
X0085610Y0007200D01*
X0076610Y0016200D01*
X0076270Y0016800D01*
X0076610Y0017100D01*
X0076610Y0026100D01*
X0082010Y0031500D01*
X0082510Y0032200D01*
X0091910Y0032400D02*
X0092510Y0032200D01*
X0107510Y0032200D02*
X0108110Y0032400D01*
X0108110Y0035100D01*
X0116210Y0043200D01*
X0133310Y0043200D01*
X0133514Y0043828D01*
X0137810Y0042300D02*
X0134210Y0038700D01*
X0116210Y0038700D01*
X0112610Y0035100D01*
X0112610Y0032400D01*
X0112510Y0032200D01*
X0112610Y0031500D01*
X0112610Y0029700D01*
X0118010Y0024300D01*
X0118010Y0017100D01*
X0118750Y0016800D01*
X0111270Y0016800D02*
X0110810Y0017100D01*
X0110810Y0026100D01*
X0108110Y0028800D01*
X0108110Y0031500D01*
X0107510Y0032200D01*
X0117510Y0032200D02*
X0118010Y0031500D01*
X0121610Y0027900D01*
X0149510Y0051300D02*
X0144110Y0056700D01*
X0144110Y0058500D01*
X0143514Y0058828D01*
X0121610Y0056700D02*
X0118010Y0056700D01*
X0117510Y0056400D01*
D16*
X0121610Y0056700D03*
X0108110Y0063900D03*
X0097310Y0079200D03*
X0088310Y0071100D03*
X0081110Y0066600D03*
X0066710Y0058500D03*
X0062210Y0063000D03*
X0050510Y0074700D03*
X0062210Y0102600D03*
M02*
