G75*
%MOIN*%
%OFA0B0*%
%FSLAX25Y25*%
%IPPOS*%
%LPD*%
%AMOC8*
5,1,8,0,0,1.08239X$1,22.5*
%
%ADD10R,0.02600X0.08000*%
%ADD11R,0.03150X0.04724*%
%ADD12R,0.02756X0.05118*%
D10*
X0082510Y0032200D03*
X0087510Y0032200D03*
X0092510Y0032200D03*
X0097510Y0032200D03*
X0102510Y0032200D03*
X0107510Y0032200D03*
X0112510Y0032200D03*
X0117510Y0032200D03*
X0117510Y0056400D03*
X0112510Y0056400D03*
X0107510Y0056400D03*
X0102510Y0056400D03*
X0097510Y0056400D03*
X0092510Y0056400D03*
X0087510Y0056400D03*
X0082510Y0056400D03*
X0082510Y0087200D03*
X0087510Y0087200D03*
X0092510Y0087200D03*
X0097510Y0087200D03*
X0102510Y0087200D03*
X0107510Y0087200D03*
X0112510Y0087200D03*
X0117510Y0087200D03*
X0117510Y0111400D03*
X0112510Y0111400D03*
X0107510Y0111400D03*
X0102510Y0111400D03*
X0097510Y0111400D03*
X0092510Y0111400D03*
X0087510Y0111400D03*
X0082510Y0111400D03*
D11*
X0078553Y0114300D03*
X0071467Y0114300D03*
X0071467Y0059300D03*
X0078553Y0059300D03*
D12*
X0076270Y0016800D03*
X0083750Y0016800D03*
X0093770Y0016800D03*
X0101250Y0016800D03*
X0111270Y0016800D03*
X0118750Y0016800D03*
X0118750Y0071800D03*
X0111270Y0071800D03*
X0101250Y0071800D03*
X0093770Y0071800D03*
X0083750Y0071800D03*
X0076270Y0071800D03*
X0093770Y0124300D03*
X0101250Y0124300D03*
M02*
