G75*
%MOIN*%
%OFA0B0*%
%FSLAX25Y25*%
%IPPOS*%
%LPD*%
%AMOC8*
5,1,8,0,0,1.08239X$1,22.5*
%
%ADD10OC8,0.07400*%
%ADD11OC8,0.06000*%
%ADD12C,0.05504*%
%ADD13C,0.09272*%
%ADD14C,0.07400*%
%ADD15C,0.00800*%
%ADD16C,0.02600*%
%ADD17C,0.23622*%
D10*
X0231000Y0097746D03*
X0241000Y0097746D03*
X0241000Y0107746D03*
X0231000Y0107746D03*
X0231000Y0117746D03*
X0241000Y0117746D03*
D11*
X0223953Y0139439D03*
X0213953Y0139439D03*
X0203953Y0139439D03*
X0193953Y0139439D03*
X0183953Y0139439D03*
X0173953Y0139439D03*
X0163953Y0139439D03*
X0153953Y0139439D03*
X0143953Y0139439D03*
X0133953Y0139439D03*
X0123953Y0139439D03*
X0113953Y0139439D03*
X0103953Y0139439D03*
X0093953Y0139439D03*
X0083953Y0139439D03*
X0073953Y0139439D03*
X0063953Y0139439D03*
X0053953Y0139439D03*
X0043953Y0139439D03*
X0033953Y0139439D03*
X0033953Y0149439D03*
X0043953Y0149439D03*
X0053953Y0149439D03*
X0063953Y0149439D03*
X0073953Y0149439D03*
X0083953Y0149439D03*
X0093953Y0149439D03*
X0103953Y0149439D03*
X0113953Y0149439D03*
X0123953Y0149439D03*
X0133953Y0149439D03*
X0143953Y0149439D03*
X0153953Y0149439D03*
X0163953Y0149439D03*
X0173953Y0149439D03*
X0183953Y0149439D03*
X0193953Y0149439D03*
X0203953Y0149439D03*
X0213953Y0149439D03*
X0223953Y0149439D03*
D12*
X0220528Y0065226D03*
X0230528Y0065226D03*
X0225528Y0055226D03*
X0215528Y0055226D03*
X0205528Y0055226D03*
X0195528Y0055226D03*
X0200528Y0065226D03*
X0210528Y0065226D03*
X0196000Y0039242D03*
X0186000Y0039242D03*
X0178008Y0039242D03*
X0168008Y0039242D03*
X0163520Y0055226D03*
X0153520Y0055226D03*
X0143520Y0055226D03*
X0133520Y0055226D03*
X0138520Y0065226D03*
X0148520Y0065226D03*
X0158520Y0065226D03*
X0168520Y0065226D03*
X0133992Y0039242D03*
X0123992Y0039242D03*
X0230016Y0039242D03*
X0240016Y0039242D03*
D13*
X0245016Y0050738D03*
X0118992Y0050738D03*
D14*
X0081000Y0087746D03*
X0081000Y0097746D03*
X0081000Y0107746D03*
X0166000Y0097746D03*
X0176000Y0097746D03*
X0196000Y0097746D03*
X0206000Y0097746D03*
D15*
X0031400Y0021246D02*
X0030600Y0022046D01*
X0031400Y0021246D02*
X0054600Y0021246D01*
X0110600Y0077246D01*
X0125800Y0077246D01*
X0129800Y0073246D01*
X0156200Y0073246D01*
X0163400Y0066046D01*
X0163400Y0055646D01*
X0163520Y0055226D01*
X0168200Y0054046D02*
X0162600Y0048446D01*
X0149000Y0048446D01*
X0148200Y0055646D02*
X0144200Y0055646D01*
X0143520Y0055226D01*
X0143400Y0054846D01*
X0139400Y0054846D01*
X0135400Y0050846D01*
X0119400Y0050846D01*
X0118992Y0050738D01*
X0118600Y0050046D01*
X0109000Y0040446D01*
X0113800Y0037246D02*
X0121800Y0045246D01*
X0179400Y0045246D01*
X0193800Y0059646D01*
X0207400Y0059646D01*
X0211400Y0055646D01*
X0211400Y0053246D01*
X0213800Y0050846D01*
X0221000Y0050846D01*
X0225000Y0054846D01*
X0225528Y0055226D01*
X0225000Y0063646D02*
X0216200Y0054846D01*
X0215528Y0055226D01*
X0225000Y0063646D02*
X0225000Y0066046D01*
X0248200Y0089246D01*
X0248200Y0120446D01*
X0242600Y0126046D01*
X0134600Y0126046D01*
X0129800Y0121246D01*
X0082600Y0121246D01*
X0069800Y0108446D01*
X0051400Y0108446D01*
X0047400Y0119646D02*
X0065000Y0119646D01*
X0057800Y0122846D02*
X0127400Y0122846D01*
X0143400Y0138846D01*
X0143953Y0139439D01*
X0123953Y0139439D02*
X0123400Y0138846D01*
X0112200Y0127646D01*
X0065000Y0127646D01*
X0066600Y0134846D02*
X0069000Y0137246D01*
X0069000Y0144446D01*
X0073800Y0149246D01*
X0073953Y0149439D01*
X0053953Y0149439D02*
X0053800Y0149246D01*
X0053800Y0145246D01*
X0048200Y0139646D01*
X0048200Y0124446D01*
X0044200Y0120446D01*
X0044200Y0088446D01*
X0046600Y0086046D01*
X0032200Y0071646D01*
X0030600Y0070046D01*
X0030600Y0060446D01*
X0042600Y0048446D01*
X0042600Y0037246D01*
X0046600Y0045246D02*
X0073800Y0045246D01*
X0114600Y0086046D01*
X0126600Y0086046D01*
X0116200Y0090046D02*
X0149800Y0090046D01*
X0182600Y0122846D01*
X0236200Y0122846D01*
X0241000Y0118046D01*
X0241000Y0117746D01*
X0246600Y0119646D02*
X0246600Y0106046D01*
X0243400Y0102846D01*
X0236200Y0102846D01*
X0231400Y0098046D01*
X0231000Y0097746D01*
X0229000Y0102846D02*
X0233800Y0102846D01*
X0238600Y0107646D01*
X0241000Y0107646D01*
X0241000Y0107746D01*
X0231000Y0107746D02*
X0230600Y0107646D01*
X0209800Y0086846D01*
X0145800Y0086846D01*
X0141800Y0082846D01*
X0113800Y0082846D01*
X0074600Y0043646D01*
X0067400Y0043646D01*
X0048200Y0024446D01*
X0039400Y0017246D02*
X0038600Y0016446D01*
X0039400Y0017246D02*
X0098600Y0017246D01*
X0115400Y0034046D01*
X0134600Y0034046D01*
X0139400Y0038846D01*
X0153000Y0037246D02*
X0153000Y0033246D01*
X0130600Y0010846D01*
X0066600Y0010846D01*
X0063400Y0014046D01*
X0093800Y0046046D02*
X0102600Y0037246D01*
X0113800Y0037246D01*
X0112200Y0033246D02*
X0122600Y0043646D01*
X0184200Y0043646D01*
X0195400Y0054846D01*
X0195528Y0055226D01*
X0168200Y0054046D02*
X0168200Y0064446D01*
X0168520Y0065226D01*
X0158520Y0065226D02*
X0157800Y0065246D01*
X0148200Y0055646D01*
X0125000Y0065246D02*
X0102600Y0042846D01*
X0102600Y0041246D01*
X0104200Y0033246D02*
X0094600Y0042846D01*
X0086600Y0042846D01*
X0084200Y0046046D02*
X0093800Y0046046D01*
X0104200Y0033246D02*
X0112200Y0033246D01*
X0083400Y0058846D02*
X0097000Y0072446D01*
X0097000Y0078846D02*
X0097800Y0079646D01*
X0105800Y0079646D01*
X0113800Y0087646D01*
X0109000Y0092446D01*
X0113800Y0087646D02*
X0116200Y0090046D01*
X0097000Y0078846D02*
X0081000Y0078846D01*
X0081000Y0065246D01*
X0078600Y0062846D01*
X0077000Y0062846D01*
X0072200Y0067646D01*
X0045000Y0067646D01*
X0042600Y0061246D02*
X0065800Y0061246D01*
X0068200Y0058846D01*
X0083400Y0058846D01*
X0077800Y0066046D02*
X0063400Y0080446D01*
X0061800Y0080446D01*
X0060200Y0086046D02*
X0058600Y0086046D01*
X0033800Y0061246D01*
X0069800Y0078846D02*
X0081000Y0078846D01*
X0073000Y0082046D02*
X0073000Y0089246D01*
X0059400Y0089246D01*
X0056200Y0086046D01*
X0046600Y0086046D01*
X0067400Y0097246D02*
X0067400Y0103646D01*
X0077000Y0113246D01*
X0107400Y0113246D01*
X0110600Y0110046D01*
X0116200Y0110046D01*
X0109000Y0107646D02*
X0088200Y0107646D01*
X0083400Y0102846D01*
X0070600Y0102846D01*
X0081000Y0097746D02*
X0081000Y0097246D01*
X0073000Y0089246D01*
X0125000Y0074046D02*
X0125000Y0065246D01*
X0155400Y0076446D02*
X0202600Y0076446D01*
X0229000Y0102846D01*
X0230600Y0117246D02*
X0208200Y0117246D01*
X0181000Y0090046D01*
X0153800Y0090046D01*
X0133800Y0121246D02*
X0177000Y0121246D01*
X0180200Y0124446D01*
X0241800Y0124446D01*
X0246600Y0119646D01*
X0231000Y0117746D02*
X0230600Y0117246D01*
D16*
X0155400Y0076446D03*
X0145800Y0086846D03*
X0149800Y0090046D03*
X0153800Y0090046D03*
X0126600Y0086046D03*
X0109000Y0092446D03*
X0097800Y0079646D03*
X0097000Y0072446D03*
X0077800Y0066046D03*
X0069800Y0078846D03*
X0073000Y0082046D03*
X0061800Y0080446D03*
X0060200Y0086046D03*
X0046600Y0086046D03*
X0067400Y0097246D03*
X0070600Y0102846D03*
X0051400Y0108446D03*
X0047400Y0119646D03*
X0057800Y0122846D03*
X0065000Y0119646D03*
X0065000Y0127646D03*
X0066600Y0134846D03*
X0109000Y0107646D03*
X0116200Y0110046D03*
X0133800Y0121246D03*
X0125000Y0074046D03*
X0149000Y0048446D03*
X0139400Y0038846D03*
X0153000Y0037246D03*
X0109000Y0040446D03*
X0102600Y0041246D03*
X0086600Y0042846D03*
X0084200Y0046046D03*
X0046600Y0045246D03*
X0042600Y0037246D03*
X0048200Y0024446D03*
X0038600Y0016446D03*
X0030600Y0022046D03*
X0063400Y0014046D03*
X0042600Y0061246D03*
X0033800Y0061246D03*
X0045000Y0067646D03*
X0032200Y0071646D03*
D17*
X0014780Y0144439D03*
X0243126Y0144439D03*
M02*
