%
M48
M72
T01C0.0100
T02C0.0315
T03C0.0320
T04C0.0350
T05C0.0400
T06C0.0618
T07C0.1083
T08C0.1358
%
T01
X3060Y2205
X3860Y1645
X4820Y2445
X6340Y1405
X4260Y3725
X4660Y4525
X4260Y6125
X3380Y6125
X4500Y6765
X3220Y7165
X4660Y8605
X6020Y8605
X6180Y8045
X6980Y7885
X7300Y8205
X7780Y6605
X9700Y7245
X9780Y7965
X10900Y9245
X12660Y8605
X14580Y8685
X14980Y9005
X15380Y9005
X15540Y7645
X12500Y7405
X14900Y4845
X13940Y3885
X15300Y3725
X10900Y4045
X10260Y4125
X8660Y4285
X8420Y4605
X6740Y9725
X7060Y10285
X5140Y10845
X4740Y11965
X5780Y12285
X6500Y11965
X6500Y12765
X6660Y13485
X10900Y10765
X11620Y11005
X13380Y12125
T02
X8100Y10775
X8100Y9775
X8100Y8775
T03
X16600Y9775
X17600Y9775
X19600Y9775
X20600Y9775
T04
X21053Y6523
X22053Y6523
X23053Y6523
X22553Y5523
X21553Y5523
X20553Y5523
X19553Y5523
X20053Y6523
X16852Y6523
X15852Y6523
X14852Y6523
X13852Y6523
X14352Y5523
X15352Y5523
X16352Y5523
X16801Y3924
X17801Y3924
X18600Y3924
X19600Y3924
X23002Y3924
X24002Y3924
X13399Y3924
X12399Y3924
X13352Y5523
T05
X23100Y9775
X24100Y9775
X24100Y10775
X23100Y10775
X23100Y11775
X24100Y11775
X22395Y13944
X21395Y13944
X20395Y13944
X19395Y13944
X18395Y13944
X17395Y13944
X16395Y13944
X15395Y13944
X14395Y13944
X13395Y13944
X12395Y13944
X11395Y13944
X10395Y13944
X9395Y13944
X8395Y13944
X7395Y13944
X6395Y13944
X5395Y13944
X4395Y13944
X3395Y13944
X3395Y14944
X4395Y14944
X5395Y14944
X6395Y14944
X7395Y14944
X8395Y14944
X9395Y14944
X10395Y14944
X11395Y14944
X12395Y14944
X13395Y14944
X14395Y14944
X15395Y14944
X16395Y14944
X17395Y14944
X18395Y14944
X19395Y14944
X20395Y14944
X21395Y14944
X22395Y14944
T06
X24502Y5074
X11899Y5074
T07
X1478Y14444
X24313Y14444
T08
X23801Y2275
X12600Y2275
M30
