%
M48
M72
T01C0.0130
T02C0.0400
T03C0.0520
%
T01
X6287Y3960
X6737Y3350
X7487Y3840
X7737Y3350
X8737Y3350
X8987Y4140
X6767Y6060
X6587Y6420
X6107Y6420
X5327Y6780
X5327Y5580
X6287Y8280
T02
X2737Y7800
X2737Y8800
X2737Y9800
X1487Y9800
X1487Y8800
X1487Y7800
X1487Y6550
X1487Y5550
X1487Y4550
X2737Y4550
X2737Y5550
X2737Y6550
X5487Y1300
X6487Y1300
X7487Y1300
X8487Y1300
X10237Y1300
X11237Y1300
X11237Y2300
X10237Y2300
X10237Y3300
X11237Y3300
X11487Y5800
X11487Y6800
X11487Y7800
X11487Y8800
X10237Y8800
X10237Y7800
X10237Y6800
X10237Y5800
X10237Y9800
X11487Y9800
T03
X1487Y1300
X1487Y2300
X1487Y3300
X2737Y3300
X2737Y2300
X2737Y1300
M30
