%
M48
M72
T01C0.0240
T02C0.0350
T03C0.0618
T04C0.1358
%
T01
X6671Y5850
X6221Y6300
X5051Y7470
X8111Y6660
X8831Y7110
X9731Y7920
X10811Y6390
X12161Y5670
X6221Y10260
T02
X5375Y9956
X4576Y9558
X5375Y9156
X4576Y10357
X5375Y10755
X4576Y11156
X4576Y6404
X5375Y6003
X4576Y5605
X5375Y5204
X4576Y4806
X5375Y4404
X13351Y4383
X14351Y4883
X13351Y5383
X14351Y5883
X13351Y6383
X15950Y6332
X15950Y7332
X15950Y8131
X15950Y9131
X14351Y9084
X13351Y9584
X14351Y10084
X13351Y10584
X14351Y11084
X13351Y11584
X14351Y12084
X13351Y12584
X15950Y12532
X15950Y13532
X14351Y3883
X13351Y3383
X14351Y2883
X15950Y2930
X15950Y1930
T03
X14800Y1430
X14800Y14032
T04
X3375Y3530
X3375Y12030
X17599Y13332
X17599Y2131
M30
