G75*
%MOIN*%
%OFA0B0*%
%FSLAX25Y25*%
%IPPOS*%
%LPD*%
%AMOC8*
5,1,8,0,0,1.08239X$1,22.5*
%
%ADD10C,0.00600*%
%ADD11C,0.00200*%
%ADD12C,0.00500*%
%ADD13C,0.00100*%
D10*
X0073829Y0056938D02*
X0076191Y0056938D01*
X0076191Y0061662D02*
X0073829Y0061662D01*
X0080030Y0063769D02*
X0080030Y0067172D01*
X0081732Y0067172D01*
X0082299Y0066605D01*
X0082299Y0065471D01*
X0081732Y0064904D01*
X0080030Y0064904D01*
X0081164Y0064904D02*
X0082299Y0063769D01*
X0083713Y0063769D02*
X0083713Y0064336D01*
X0085982Y0066605D01*
X0085982Y0067172D01*
X0083713Y0067172D01*
X0090723Y0076431D02*
X0090723Y0079834D01*
X0092425Y0079834D01*
X0092992Y0079266D01*
X0092992Y0078132D01*
X0092425Y0077565D01*
X0090723Y0077565D01*
X0091858Y0077565D02*
X0092992Y0076431D01*
X0094406Y0076431D02*
X0096675Y0076431D01*
X0095541Y0076431D02*
X0095541Y0079834D01*
X0094406Y0078699D01*
X0108223Y0077565D02*
X0109925Y0077565D01*
X0110492Y0078132D01*
X0110492Y0079266D01*
X0109925Y0079834D01*
X0108223Y0079834D01*
X0108223Y0076431D01*
X0109358Y0077565D02*
X0110492Y0076431D01*
X0111906Y0078132D02*
X0114175Y0078132D01*
X0113608Y0076431D02*
X0113608Y0079834D01*
X0111906Y0078132D01*
X0118510Y0091600D02*
X0081510Y0091600D01*
X0081434Y0091602D01*
X0081358Y0091608D01*
X0081283Y0091617D01*
X0081208Y0091631D01*
X0081134Y0091648D01*
X0081061Y0091669D01*
X0080989Y0091693D01*
X0080918Y0091722D01*
X0080849Y0091753D01*
X0080782Y0091788D01*
X0080717Y0091827D01*
X0080653Y0091869D01*
X0080592Y0091914D01*
X0080533Y0091962D01*
X0080477Y0092013D01*
X0080423Y0092067D01*
X0080372Y0092123D01*
X0080324Y0092182D01*
X0080279Y0092243D01*
X0080237Y0092307D01*
X0080198Y0092372D01*
X0080163Y0092439D01*
X0080132Y0092508D01*
X0080103Y0092579D01*
X0080079Y0092651D01*
X0080058Y0092724D01*
X0080041Y0092798D01*
X0080027Y0092873D01*
X0080018Y0092948D01*
X0080012Y0093024D01*
X0080010Y0093100D01*
X0080010Y0105500D01*
X0080012Y0105576D01*
X0080018Y0105652D01*
X0080027Y0105727D01*
X0080041Y0105802D01*
X0080058Y0105876D01*
X0080079Y0105949D01*
X0080103Y0106021D01*
X0080132Y0106092D01*
X0080163Y0106161D01*
X0080198Y0106228D01*
X0080237Y0106293D01*
X0080279Y0106357D01*
X0080324Y0106418D01*
X0080372Y0106477D01*
X0080423Y0106533D01*
X0080477Y0106587D01*
X0080533Y0106638D01*
X0080592Y0106686D01*
X0080653Y0106731D01*
X0080717Y0106773D01*
X0080782Y0106812D01*
X0080849Y0106847D01*
X0080918Y0106878D01*
X0080989Y0106907D01*
X0081061Y0106931D01*
X0081134Y0106952D01*
X0081208Y0106969D01*
X0081283Y0106983D01*
X0081358Y0106992D01*
X0081434Y0106998D01*
X0081510Y0107000D01*
X0118510Y0107000D01*
X0118586Y0106998D01*
X0118662Y0106992D01*
X0118737Y0106983D01*
X0118812Y0106969D01*
X0118886Y0106952D01*
X0118959Y0106931D01*
X0119031Y0106907D01*
X0119102Y0106878D01*
X0119171Y0106847D01*
X0119238Y0106812D01*
X0119303Y0106773D01*
X0119367Y0106731D01*
X0119428Y0106686D01*
X0119487Y0106638D01*
X0119543Y0106587D01*
X0119597Y0106533D01*
X0119648Y0106477D01*
X0119696Y0106418D01*
X0119741Y0106357D01*
X0119783Y0106293D01*
X0119822Y0106228D01*
X0119857Y0106161D01*
X0119888Y0106092D01*
X0119917Y0106021D01*
X0119941Y0105949D01*
X0119962Y0105876D01*
X0119979Y0105802D01*
X0119993Y0105727D01*
X0120002Y0105652D01*
X0120008Y0105576D01*
X0120010Y0105500D01*
X0120010Y0093100D01*
X0120008Y0093024D01*
X0120002Y0092948D01*
X0119993Y0092873D01*
X0119979Y0092798D01*
X0119962Y0092724D01*
X0119941Y0092651D01*
X0119917Y0092579D01*
X0119888Y0092508D01*
X0119857Y0092439D01*
X0119822Y0092372D01*
X0119783Y0092307D01*
X0119741Y0092243D01*
X0119696Y0092182D01*
X0119648Y0092123D01*
X0119597Y0092067D01*
X0119543Y0092013D01*
X0119487Y0091962D01*
X0119428Y0091914D01*
X0119367Y0091869D01*
X0119303Y0091827D01*
X0119238Y0091788D01*
X0119171Y0091753D01*
X0119102Y0091722D01*
X0119031Y0091693D01*
X0118959Y0091669D01*
X0118886Y0091648D01*
X0118812Y0091631D01*
X0118737Y0091617D01*
X0118662Y0091608D01*
X0118586Y0091602D01*
X0118510Y0091600D01*
X0080010Y0097300D02*
X0080098Y0097302D01*
X0080187Y0097308D01*
X0080275Y0097318D01*
X0080362Y0097331D01*
X0080449Y0097349D01*
X0080535Y0097370D01*
X0080620Y0097395D01*
X0080703Y0097424D01*
X0080786Y0097457D01*
X0080866Y0097493D01*
X0080945Y0097532D01*
X0081023Y0097575D01*
X0081098Y0097622D01*
X0081171Y0097672D01*
X0081242Y0097725D01*
X0081311Y0097781D01*
X0081377Y0097840D01*
X0081440Y0097902D01*
X0081500Y0097966D01*
X0081558Y0098033D01*
X0081612Y0098103D01*
X0081664Y0098175D01*
X0081712Y0098249D01*
X0081757Y0098326D01*
X0081798Y0098404D01*
X0081836Y0098484D01*
X0081870Y0098565D01*
X0081901Y0098648D01*
X0081928Y0098733D01*
X0081951Y0098818D01*
X0081970Y0098904D01*
X0081986Y0098992D01*
X0081998Y0099079D01*
X0082006Y0099167D01*
X0082010Y0099256D01*
X0082010Y0099344D01*
X0082006Y0099433D01*
X0081998Y0099521D01*
X0081986Y0099608D01*
X0081970Y0099696D01*
X0081951Y0099782D01*
X0081928Y0099867D01*
X0081901Y0099952D01*
X0081870Y0100035D01*
X0081836Y0100116D01*
X0081798Y0100196D01*
X0081757Y0100274D01*
X0081712Y0100351D01*
X0081664Y0100425D01*
X0081612Y0100497D01*
X0081558Y0100567D01*
X0081500Y0100634D01*
X0081440Y0100698D01*
X0081377Y0100760D01*
X0081311Y0100819D01*
X0081242Y0100875D01*
X0081171Y0100928D01*
X0081098Y0100978D01*
X0081023Y0101025D01*
X0080945Y0101068D01*
X0080866Y0101107D01*
X0080786Y0101143D01*
X0080703Y0101176D01*
X0080620Y0101205D01*
X0080535Y0101230D01*
X0080449Y0101251D01*
X0080362Y0101269D01*
X0080275Y0101282D01*
X0080187Y0101292D01*
X0080098Y0101298D01*
X0080010Y0101300D01*
X0076191Y0111938D02*
X0073829Y0111938D01*
X0073829Y0116662D02*
X0076191Y0116662D01*
X0090723Y0128931D02*
X0090723Y0132334D01*
X0092425Y0132334D01*
X0092992Y0131766D01*
X0092992Y0130632D01*
X0092425Y0130065D01*
X0090723Y0130065D01*
X0091858Y0130065D02*
X0092992Y0128931D01*
X0094406Y0129498D02*
X0094974Y0128931D01*
X0096108Y0128931D01*
X0096675Y0129498D01*
X0096675Y0130065D01*
X0096108Y0130632D01*
X0095541Y0130632D01*
X0096108Y0130632D02*
X0096675Y0131199D01*
X0096675Y0131766D01*
X0096108Y0132334D01*
X0094974Y0132334D01*
X0094406Y0131766D01*
X0081510Y0052000D02*
X0118510Y0052000D01*
X0118586Y0051998D01*
X0118662Y0051992D01*
X0118737Y0051983D01*
X0118812Y0051969D01*
X0118886Y0051952D01*
X0118959Y0051931D01*
X0119031Y0051907D01*
X0119102Y0051878D01*
X0119171Y0051847D01*
X0119238Y0051812D01*
X0119303Y0051773D01*
X0119367Y0051731D01*
X0119428Y0051686D01*
X0119487Y0051638D01*
X0119543Y0051587D01*
X0119597Y0051533D01*
X0119648Y0051477D01*
X0119696Y0051418D01*
X0119741Y0051357D01*
X0119783Y0051293D01*
X0119822Y0051228D01*
X0119857Y0051161D01*
X0119888Y0051092D01*
X0119917Y0051021D01*
X0119941Y0050949D01*
X0119962Y0050876D01*
X0119979Y0050802D01*
X0119993Y0050727D01*
X0120002Y0050652D01*
X0120008Y0050576D01*
X0120010Y0050500D01*
X0120010Y0038100D01*
X0120008Y0038024D01*
X0120002Y0037948D01*
X0119993Y0037873D01*
X0119979Y0037798D01*
X0119962Y0037724D01*
X0119941Y0037651D01*
X0119917Y0037579D01*
X0119888Y0037508D01*
X0119857Y0037439D01*
X0119822Y0037372D01*
X0119783Y0037307D01*
X0119741Y0037243D01*
X0119696Y0037182D01*
X0119648Y0037123D01*
X0119597Y0037067D01*
X0119543Y0037013D01*
X0119487Y0036962D01*
X0119428Y0036914D01*
X0119367Y0036869D01*
X0119303Y0036827D01*
X0119238Y0036788D01*
X0119171Y0036753D01*
X0119102Y0036722D01*
X0119031Y0036693D01*
X0118959Y0036669D01*
X0118886Y0036648D01*
X0118812Y0036631D01*
X0118737Y0036617D01*
X0118662Y0036608D01*
X0118586Y0036602D01*
X0118510Y0036600D01*
X0081510Y0036600D01*
X0081434Y0036602D01*
X0081358Y0036608D01*
X0081283Y0036617D01*
X0081208Y0036631D01*
X0081134Y0036648D01*
X0081061Y0036669D01*
X0080989Y0036693D01*
X0080918Y0036722D01*
X0080849Y0036753D01*
X0080782Y0036788D01*
X0080717Y0036827D01*
X0080653Y0036869D01*
X0080592Y0036914D01*
X0080533Y0036962D01*
X0080477Y0037013D01*
X0080423Y0037067D01*
X0080372Y0037123D01*
X0080324Y0037182D01*
X0080279Y0037243D01*
X0080237Y0037307D01*
X0080198Y0037372D01*
X0080163Y0037439D01*
X0080132Y0037508D01*
X0080103Y0037579D01*
X0080079Y0037651D01*
X0080058Y0037724D01*
X0080041Y0037798D01*
X0080027Y0037873D01*
X0080018Y0037948D01*
X0080012Y0038024D01*
X0080010Y0038100D01*
X0080010Y0050500D01*
X0080012Y0050576D01*
X0080018Y0050652D01*
X0080027Y0050727D01*
X0080041Y0050802D01*
X0080058Y0050876D01*
X0080079Y0050949D01*
X0080103Y0051021D01*
X0080132Y0051092D01*
X0080163Y0051161D01*
X0080198Y0051228D01*
X0080237Y0051293D01*
X0080279Y0051357D01*
X0080324Y0051418D01*
X0080372Y0051477D01*
X0080423Y0051533D01*
X0080477Y0051587D01*
X0080533Y0051638D01*
X0080592Y0051686D01*
X0080653Y0051731D01*
X0080717Y0051773D01*
X0080782Y0051812D01*
X0080849Y0051847D01*
X0080918Y0051878D01*
X0080989Y0051907D01*
X0081061Y0051931D01*
X0081134Y0051952D01*
X0081208Y0051969D01*
X0081283Y0051983D01*
X0081358Y0051992D01*
X0081434Y0051998D01*
X0081510Y0052000D01*
X0080010Y0046300D02*
X0080098Y0046298D01*
X0080187Y0046292D01*
X0080275Y0046282D01*
X0080362Y0046269D01*
X0080449Y0046251D01*
X0080535Y0046230D01*
X0080620Y0046205D01*
X0080703Y0046176D01*
X0080786Y0046143D01*
X0080866Y0046107D01*
X0080945Y0046068D01*
X0081023Y0046025D01*
X0081098Y0045978D01*
X0081171Y0045928D01*
X0081242Y0045875D01*
X0081311Y0045819D01*
X0081377Y0045760D01*
X0081440Y0045698D01*
X0081500Y0045634D01*
X0081558Y0045567D01*
X0081612Y0045497D01*
X0081664Y0045425D01*
X0081712Y0045351D01*
X0081757Y0045274D01*
X0081798Y0045196D01*
X0081836Y0045116D01*
X0081870Y0045035D01*
X0081901Y0044952D01*
X0081928Y0044867D01*
X0081951Y0044782D01*
X0081970Y0044696D01*
X0081986Y0044608D01*
X0081998Y0044521D01*
X0082006Y0044433D01*
X0082010Y0044344D01*
X0082010Y0044256D01*
X0082006Y0044167D01*
X0081998Y0044079D01*
X0081986Y0043992D01*
X0081970Y0043904D01*
X0081951Y0043818D01*
X0081928Y0043733D01*
X0081901Y0043648D01*
X0081870Y0043565D01*
X0081836Y0043484D01*
X0081798Y0043404D01*
X0081757Y0043326D01*
X0081712Y0043249D01*
X0081664Y0043175D01*
X0081612Y0043103D01*
X0081558Y0043033D01*
X0081500Y0042966D01*
X0081440Y0042902D01*
X0081377Y0042840D01*
X0081311Y0042781D01*
X0081242Y0042725D01*
X0081171Y0042672D01*
X0081098Y0042622D01*
X0081023Y0042575D01*
X0080945Y0042532D01*
X0080866Y0042493D01*
X0080786Y0042457D01*
X0080703Y0042424D01*
X0080620Y0042395D01*
X0080535Y0042370D01*
X0080449Y0042349D01*
X0080362Y0042331D01*
X0080275Y0042318D01*
X0080187Y0042308D01*
X0080098Y0042302D01*
X0080010Y0042300D01*
X0090723Y0024834D02*
X0092425Y0024834D01*
X0092992Y0024266D01*
X0092992Y0023132D01*
X0092425Y0022565D01*
X0090723Y0022565D01*
X0090723Y0021431D02*
X0090723Y0024834D01*
X0091858Y0022565D02*
X0092992Y0021431D01*
X0094406Y0021431D02*
X0096675Y0023699D01*
X0096675Y0024266D01*
X0096108Y0024834D01*
X0094974Y0024834D01*
X0094406Y0024266D01*
X0094406Y0021431D02*
X0096675Y0021431D01*
X0108223Y0021431D02*
X0108223Y0024834D01*
X0109925Y0024834D01*
X0110492Y0024266D01*
X0110492Y0023132D01*
X0109925Y0022565D01*
X0108223Y0022565D01*
X0109358Y0022565D02*
X0110492Y0021431D01*
X0111906Y0021998D02*
X0112474Y0021431D01*
X0113608Y0021431D01*
X0114175Y0021998D01*
X0114175Y0023132D01*
X0113608Y0023699D01*
X0113041Y0023699D01*
X0111906Y0023132D01*
X0111906Y0024834D01*
X0114175Y0024834D01*
X0085982Y0012172D02*
X0084848Y0011605D01*
X0083713Y0010471D01*
X0085415Y0010471D01*
X0085982Y0009904D01*
X0085982Y0009336D01*
X0085415Y0008769D01*
X0084280Y0008769D01*
X0083713Y0009336D01*
X0083713Y0010471D01*
X0082299Y0010471D02*
X0082299Y0011605D01*
X0081732Y0012172D01*
X0080030Y0012172D01*
X0080030Y0008769D01*
X0080030Y0009904D02*
X0081732Y0009904D01*
X0082299Y0010471D01*
X0081164Y0009904D02*
X0082299Y0008769D01*
D11*
X0080010Y0038000D02*
X0120010Y0038000D01*
X0120010Y0093000D02*
X0080010Y0093000D01*
D12*
X0072923Y0013257D02*
X0087096Y0013257D01*
X0087096Y0020343D01*
X0072923Y0020343D01*
X0072923Y0013257D01*
X0090423Y0013257D02*
X0104596Y0013257D01*
X0104596Y0020343D01*
X0090423Y0020343D01*
X0090423Y0013257D01*
X0107923Y0013257D02*
X0122096Y0013257D01*
X0122096Y0020343D01*
X0107923Y0020343D01*
X0107923Y0013257D01*
X0078260Y0037301D02*
X0077509Y0036550D01*
X0073756Y0036550D01*
X0073756Y0039553D02*
X0077509Y0039553D01*
X0078260Y0038802D01*
X0078260Y0037301D01*
X0077509Y0041154D02*
X0078260Y0041905D01*
X0078260Y0043406D01*
X0077509Y0044156D01*
X0076759Y0044156D01*
X0076008Y0043406D01*
X0076008Y0041905D01*
X0075257Y0041154D01*
X0074507Y0041154D01*
X0073756Y0041905D01*
X0073756Y0043406D01*
X0074507Y0044156D01*
X0075257Y0045758D02*
X0073756Y0047259D01*
X0078260Y0047259D01*
X0078260Y0045758D02*
X0078260Y0048760D01*
X0079010Y0042655D02*
X0073005Y0042655D01*
X0072923Y0068257D02*
X0087096Y0068257D01*
X0087096Y0075343D01*
X0072923Y0075343D01*
X0072923Y0068257D01*
X0090423Y0068257D02*
X0104596Y0068257D01*
X0104596Y0075343D01*
X0090423Y0075343D01*
X0090423Y0068257D01*
X0107923Y0068257D02*
X0122096Y0068257D01*
X0122096Y0075343D01*
X0107923Y0075343D01*
X0107923Y0068257D01*
X0078260Y0092301D02*
X0077509Y0091550D01*
X0073756Y0091550D01*
X0073756Y0094553D02*
X0077509Y0094553D01*
X0078260Y0093802D01*
X0078260Y0092301D01*
X0077509Y0096154D02*
X0078260Y0096905D01*
X0078260Y0098406D01*
X0077509Y0099156D01*
X0076759Y0099156D01*
X0076008Y0098406D01*
X0076008Y0096905D01*
X0075257Y0096154D01*
X0074507Y0096154D01*
X0073756Y0096905D01*
X0073756Y0098406D01*
X0074507Y0099156D01*
X0074507Y0100758D02*
X0073756Y0101508D01*
X0073756Y0103010D01*
X0074507Y0103760D01*
X0075257Y0103760D01*
X0078260Y0100758D01*
X0078260Y0103760D01*
X0079010Y0097655D02*
X0073005Y0097655D01*
X0090423Y0120757D02*
X0104596Y0120757D01*
X0104596Y0127843D01*
X0090423Y0127843D01*
X0090423Y0120757D01*
D13*
X0077587Y0110751D02*
X0077337Y0111001D01*
X0076837Y0111001D01*
X0076587Y0110751D01*
X0076114Y0110751D02*
X0075864Y0111001D01*
X0075364Y0111001D01*
X0075113Y0110751D01*
X0075113Y0109750D01*
X0075364Y0109500D01*
X0075864Y0109500D01*
X0076114Y0109750D01*
X0076587Y0109500D02*
X0077587Y0110501D01*
X0077587Y0110751D01*
X0077587Y0109500D02*
X0076587Y0109500D01*
X0077087Y0056001D02*
X0077087Y0054500D01*
X0076587Y0054500D02*
X0077587Y0054500D01*
X0076587Y0055501D02*
X0077087Y0056001D01*
X0076114Y0055751D02*
X0075864Y0056001D01*
X0075364Y0056001D01*
X0075113Y0055751D01*
X0075113Y0054750D01*
X0075364Y0054500D01*
X0075864Y0054500D01*
X0076114Y0054750D01*
M02*
