  0
SECTION
  2
HEADER
  9
$ACADVER
  1
AC1009
  9
$FILLMODE
 70
0
  9
$EXTMIN
 10
-7.6200
 20
-7.6200
 30
0.0000
  9
$EXTMAX
 10
37.3380
 20
33.5280
 30
0.0000
  0
ENDSEC
  0
SECTION
  2
TABLES
  0
TABLE
  2
LTYPE
 70
1
  0
LTYPE
  2
CONTINUOUS
 70
64
  3
Solid line
 72
65
 73
0
 40
0
  0
ENDTAB
  0
TABLE
  2
LAYER
 70
255
  0
LAYER
  2
20
 70
64
 62
7
  6
CONTINUOUS
  0
LAYER
  2
30
 70
64
 62
253
  6
CONTINUOUS
  0
LAYER
  2
39
 70
64
 62
22
  6
CONTINUOUS
  0
LAYER
  2
40
 70
64
 62
175
  6
CONTINUOUS
  0
LAYER
  2
41
 70
64
 62
22
  6
CONTINUOUS
  0
LAYER
  2
42
 70
64
 62
175
  6
CONTINUOUS
  0
LAYER
  2
43
 70
64
 62
82
  6
CONTINUOUS
  0
LAYER
  2
45
 70
64
 62
253
  6
CONTINUOUS
  0
LAYER
  2
48
 70
64
 62
253
  6
CONTINUOUS
  0
LAYER
  2
49
 70
64
 62
253
  6
CONTINUOUS
  0
LAYER
  2
101
 70
64
 62
1
  6
CONTINUOUS
  0
LAYER
  2
102
 70
64
 62
253
  6
CONTINUOUS
  0
LAYER
  2
103
 70
64
 62
253
  6
CONTINUOUS
  0
LAYER
  2
104
 70
64
 62
253
  6
CONTINUOUS
  0
LAYER
  2
105
 70
64
 62
253
  6
CONTINUOUS
  0
LAYER
  2
106
 70
64
 62
253
  6
CONTINUOUS
  0
LAYER
  2
107
 70
64
 62
253
  6
CONTINUOUS
  0
LAYER
  2
108
 70
64
 62
3
  6
CONTINUOUS
  0
LAYER
  2
109
 70
64
 62
4
  6
CONTINUOUS
  0
LAYER
  2
110
 70
64
 62
253
  6
CONTINUOUS
  0
LAYER
  2
111
 70
64
 62
253
  6
CONTINUOUS
  0
LAYER
  2
112
 70
64
 62
253
  6
CONTINUOUS
  0
LAYER
  2
113
 70
64
 62
22
  6
CONTINUOUS
  0
LAYER
  2
114
 70
64
 62
253
  6
CONTINUOUS
  0
LAYER
  2
115
 70
64
 62
253
  6
CONTINUOUS
  0
LAYER
  2
116
 70
64
 62
5
  6
CONTINUOUS
  0
LAYER
  2
118
 70
64
 62
253
  6
CONTINUOUS
  0
LAYER
  2
121
 70
64
 62
253
  6
CONTINUOUS
  0
LAYER
  2
122
 70
64
 62
253
  6
CONTINUOUS
  0
LAYER
  2
123
 70
64
 62
253
  6
CONTINUOUS
  0
LAYER
  2
124
 70
64
 62
253
  6
CONTINUOUS
  0
LAYER
  2
126
 70
64
 62
253
  6
CONTINUOUS
  0
LAYER
  2
127
 70
64
 62
253
  6
CONTINUOUS
  0
LAYER
  2
128
 70
64
 62
253
  6
CONTINUOUS
  0
LAYER
  2
129
 70
64
 62
253
  6
CONTINUOUS
  0
LAYER
  2
131
 70
64
 62
253
  6
CONTINUOUS
  0
LAYER
  2
132
 70
64
 62
253
  6
CONTINUOUS
  0
LAYER
  2
150
 70
64
 62
253
  6
CONTINUOUS
  0
LAYER
  2
151
 70
64
 62
253
  6
CONTINUOUS
  0
LAYER
  2
152
 70
64
 62
253
  6
CONTINUOUS
  0
LAYER
  2
153
 70
64
 62
253
  6
CONTINUOUS
  0
LAYER
  2
154
 70
64
 62
253
  6
CONTINUOUS
  0
LAYER
  2
155
 70
64
 62
253
  6
CONTINUOUS
  0
LAYER
  2
199
 70
64
 62
253
  6
CONTINUOUS
  0
LAYER
  2
200
 70
64
 62
175
  6
CONTINUOUS
  0
LAYER
  2
201
 70
64
 62
82
  6
CONTINUOUS
  0
LAYER
  2
202
 70
64
 62
140
  6
CONTINUOUS
  0
LAYER
  2
203
 70
64
 62
22
  6
CONTINUOUS
  0
LAYER
  2
204
 70
64
 62
213
  6
CONTINUOUS
  0
LAYER
  2
205
 70
64
 62
53
  6
CONTINUOUS
  0
LAYER
  2
206
 70
64
 62
253
  6
CONTINUOUS
  0
LAYER
  2
207
 70
64
 62
250
  6
CONTINUOUS
  0
LAYER
  2
208
 70
64
 62
5
  6
CONTINUOUS
  0
LAYER
  2
225
 70
64
 62
253
  6
CONTINUOUS
  0
LAYER
  2
226
 70
64
 62
253
  6
CONTINUOUS
  0
LAYER
  2
227
 70
64
 62
253
  6
CONTINUOUS
  0
LAYER
  2
228
 70
64
 62
253
  6
CONTINUOUS
  0
LAYER
  2
229
 70
64
 62
253
  6
CONTINUOUS
  0
LAYER
  2
230
 70
64
 62
253
  6
CONTINUOUS
  0
LAYER
  2
231
 70
64
 62
253
  6
CONTINUOUS
  0
LAYER
  2
248
 70
64
 62
253
  6
CONTINUOUS
  0
LAYER
  2
249
 70
64
 62
253
  6
CONTINUOUS
  0
LAYER
  2
254
 70
64
 62
253
  6
CONTINUOUS
  0
LAYER
  2
255
 70
64
 62
253
  6
CONTINUOUS
  0
ENDTAB
  0
ENDSEC
  0
SECTION
  2
BLOCKS
  0
BLOCK
  8
0
  2
RECT
 70
64
 10
0.0000
 20
0.0000
 30
0.0000
  3
RECT
  0
SOLID
  8
0
 10
-0.5000
 20
-0.5000
 30
0.0000
 11
0.5000
 21
-0.5000
 31
0.0000
 12
-0.5000
 22
0.5000
 32
0.0000
 13
0.5000
 23
0.5000
 33
0.0000
  0
ENDBLK
  8
0
  0
BLOCK
  8
0
  2
PIE
 70
64
 10
0.0000
 20
0.0000
 30
0.0000
  3
PIE
  0
CIRCLE
  8
0
 10
0.0000
 20
0.0000
 30
0.0000
 40
0.5000
  0
ENDBLK
  8
0
  0
BLOCK
  8
0
  2
OCTAGONP
 70
64
 10
0.0000
 20
0.0000
 30
0.0000
  3
OCTAGONP
  0
POLYLINE
  8
0
 66
1
 10
0.0000
 20
0.0000
 30
0.0000
 40
0.0000
 41
0.0000
 70
1
  0
VERTEX
  8
0
 10
-0.5000
 20
-0.2071
 30
0.0000
  0
VERTEX
  8
0
 10
-0.5000
 20
0.2071
 30
0.0000
  0
VERTEX
  8
0
 10
-0.2071
 20
0.5000
 30
0.0000
  0
VERTEX
  8
0
 10
0.2071
 20
0.5000
 30
0.0000
  0
VERTEX
  8
0
 10
0.5000
 20
0.2071
 30
0.0000
  0
VERTEX
  8
0
 10
0.5000
 20
-0.2071
 30
0.0000
  0
VERTEX
  8
0
 10
0.2071
 20
-0.5000
 30
0.0000
  0
VERTEX
  8
0
 10
-0.2071
 20
-0.5000
 30
0.0000
  0
SEQEND
  8
0
  0
ENDBLK
  8
0
  0
BLOCK
  8
0
  2
SQUAREP
 70
64
 10
0.0000
 20
0.0000
 30
0.0000
  3
SQUAREP
  0
SOLID
  8
0
 10
-0.5000
 20
-0.5000
 30
0.0000
 11
0.5000
 21
-0.5000
 31
0.0000
 12
-0.5000
 22
0.5000
 32
0.0000
 13
0.5000
 23
0.5000
 33
0.0000
  0
ENDBLK
  8
0
  0
BLOCK
  8
0
  2
ROUNDP
 70
64
 10
0.0000
 20
0.0000
 30
0.0000
  3
ROUNDP
  0
CIRCLE
  8
0
 10
0.0000
 20
0.0000
 30
0.0000
 40
0.5000
  0
ENDBLK
  8
0
  0
BLOCK
  8
0
  2
ANNULUSP
 70
64
 10
0.0000
 20
0.0000
 30
0.0000
  3
ANNULUSP
  0
CIRCLE
  8
0
 10
0.0000
 20
0.0000
 30
0.0000
 40
0.5000
  0
ENDBLK
  8
0
  0
BLOCK
  8
0
  2
THERMALP
 70
64
 10
0.0000
 20
0.0000
 30
0.0000
  3
THERMALP
  0
LINE
  8
0
 10
-0.2379
 20
0.4500
 30
0.0000
 11
0.2379
 21
0.4500
 31
0.0000
  0
LINE
  8
0
 10
0.4500
 20
0.2379
 30
0.0000
 11
0.4500
 21
-0.2379
 31
0.0000
  0
LINE
  8
0
 10
0.2379
 20
-0.4500
 30
0.0000
 11
-0.2379
 21
-0.4500
 31
0.0000
  0
LINE
  8
0
 10
-0.4500
 20
-0.2379
 30
0.0000
 11
-0.4500
 21
0.2379
 31
0.0000
  0
ENDBLK
  8
0
  0
BLOCK
  8
0
  2
OCTAGONV
 70
64
 10
0.0000
 20
0.0000
 30
0.0000
  3
OCTAGONV
  0
POLYLINE
  8
0
 66
1
 10
0.0000
 20
0.0000
 30
0.0000
 40
0.0000
 41
0.0000
 70
1
  0
VERTEX
  8
0
 10
-0.5000
 20
-0.2071
 30
0.0000
  0
VERTEX
  8
0
 10
-0.5000
 20
0.2071
 30
0.0000
  0
VERTEX
  8
0
 10
-0.2071
 20
0.5000
 30
0.0000
  0
VERTEX
  8
0
 10
0.2071
 20
0.5000
 30
0.0000
  0
VERTEX
  8
0
 10
0.5000
 20
0.2071
 30
0.0000
  0
VERTEX
  8
0
 10
0.5000
 20
-0.2071
 30
0.0000
  0
VERTEX
  8
0
 10
0.2071
 20
-0.5000
 30
0.0000
  0
VERTEX
  8
0
 10
-0.2071
 20
-0.5000
 30
0.0000
  0
SEQEND
  8
0
  0
ENDBLK
  8
0
  0
BLOCK
  8
0
  2
SQUAREV
 70
64
 10
0.0000
 20
0.0000
 30
0.0000
  3
SQUAREV
  0
SOLID
  8
0
 10
-0.5000
 20
-0.5000
 30
0.0000
 11
0.5000
 21
-0.5000
 31
0.0000
 12
-0.5000
 22
0.5000
 32
0.0000
 13
0.5000
 23
0.5000
 33
0.0000
  0
ENDBLK
  8
0
  0
BLOCK
  8
0
  2
ROUNDV
 70
64
 10
0.0000
 20
0.0000
 30
0.0000
  3
ROUNDV
  0
CIRCLE
  8
0
 10
0.0000
 20
0.0000
 30
0.0000
 40
0.5000
  0
ENDBLK
  8
0
  0
BLOCK
  8
0
  2
ANNULUSV
 70
64
 10
0.0000
 20
0.0000
 30
0.0000
  3
ANNULUSV
  0
CIRCLE
  8
0
 10
0.0000
 20
0.0000
 30
0.0000
 40
0.5000
  0
ENDBLK
  8
0
  0
BLOCK
  8
0
  2
THERMALV
 70
64
 10
0.0000
 20
0.0000
 30
0.0000
  3
THERMALV
  0
LINE
  8
0
 10
-0.2379
 20
0.4500
 30
0.0000
 11
0.2379
 21
0.4500
 31
0.0000
  0
LINE
  8
0
 10
0.4500
 20
0.2379
 30
0.0000
 11
0.4500
 21
-0.2379
 31
0.0000
  0
LINE
  8
0
 10
0.2379
 20
-0.4500
 30
0.0000
 11
-0.2379
 21
-0.4500
 31
0.0000
  0
LINE
  8
0
 10
-0.4500
 20
-0.2379
 30
0.0000
 11
-0.4500
 21
0.2379
 31
0.0000
  0
ENDBLK
  8
0
  0
ENDSEC
  0
SECTION
  2
ENTITIES
  0
LINE
  8
20
 10
0.0000
 20
0.0000
 30
0.0000
 11
30.4040
 21
0.0000
 31
0.0000
  0
LINE
  8
20
 10
30.4040
 20
0.0000
 30
0.0000
 11
30.4040
 21
26.5330
 31
0.0000
  0
LINE
  8
20
 10
30.4040
 20
26.5330
 30
0.0000
 11
0.0000
 21
26.5330
 31
0.0000
  0
LINE
  8
20
 10
0.0000
 20
26.5330
 30
0.0000
 11
0.0000
 21
0.0000
 31
0.0000
  0
INSERT
  8
30
  2
RECT
 10
15.2400
 20
4.7650
 30
0.0000
 41
0.9032
 42
1.1032
 43
1.0000
 50
0.0000
  0
INSERT
  8
30
  2
RECT
 10
14.5900
 20
6.6650
 30
0.0000
 41
0.9032
 42
1.1032
 43
1.0000
 50
0.0000
  0
INSERT
  8
30
  2
RECT
 10
15.8900
 20
6.6650
 30
0.0000
 41
0.9032
 42
1.1032
 43
1.0000
 50
0.0000
  0
INSERT
  8
30
  2
RECT
 10
17.1450
 20
14.8700
 30
0.0000
 41
1.0032
 42
1.4032
 43
1.0000
 50
270.0000
  0
INSERT
  8
30
  2
RECT
 10
17.1450
 20
13.0700
 30
0.0000
 41
1.0032
 42
1.4032
 43
1.0000
 50
270.0000
  0
INSERT
  8
30
  2
ROUNDP
 10
24.7650
 20
13.9700
 30
0.0000
 41
2.0828
 42
2.0828
 43
1.0000
 50
180.0000
  0
INSERT
  8
30
  2
ROUNDP
 10
24.7650
 20
16.5100
 30
0.0000
 41
2.0828
 42
2.0828
 43
1.0000
 50
180.0000
  0
INSERT
  8
30
  2
ROUNDP
 10
24.7650
 20
19.0500
 30
0.0000
 41
2.0828
 42
2.0828
 43
1.0000
 50
180.0000
  0
INSERT
  8
30
  2
ROUNDP
 10
24.7650
 20
21.5900
 30
0.0000
 41
2.0828
 42
2.0828
 43
1.0000
 50
180.0000
  0
INSERT
  8
30
  2
ROUNDP
 10
24.7650
 20
24.1300
 30
0.0000
 41
2.0828
 42
2.0828
 43
1.0000
 50
180.0000
  0
INSERT
  8
30
  2
ROUNDP
 10
27.9400
 20
13.9700
 30
0.0000
 41
2.0828
 42
2.0828
 43
1.0000
 50
180.0000
  0
INSERT
  8
30
  2
ROUNDP
 10
27.9400
 20
16.5100
 30
0.0000
 41
2.0828
 42
2.0828
 43
1.0000
 50
180.0000
  0
INSERT
  8
30
  2
ROUNDP
 10
27.9400
 20
19.0500
 30
0.0000
 41
2.0828
 42
2.0828
 43
1.0000
 50
180.0000
  0
INSERT
  8
30
  2
ROUNDP
 10
27.9400
 20
21.5900
 30
0.0000
 41
2.0828
 42
2.0828
 43
1.0000
 50
180.0000
  0
INSERT
  8
30
  2
ROUNDP
 10
27.9400
 20
24.1300
 30
0.0000
 41
2.0828
 42
2.0828
 43
1.0000
 50
180.0000
  0
INSERT
  8
30
  2
RECT
 10
17.7800
 20
4.7650
 30
0.0000
 41
0.9032
 42
1.1032
 43
1.0000
 50
0.0000
  0
INSERT
  8
30
  2
RECT
 10
17.1300
 20
6.6650
 30
0.0000
 41
0.9032
 42
1.1032
 43
1.0000
 50
0.0000
  0
INSERT
  8
30
  2
RECT
 10
18.4300
 20
6.6650
 30
0.0000
 41
0.9032
 42
1.1032
 43
1.0000
 50
0.0000
  0
INSERT
  8
30
  2
OCTAGONP
 10
27.3050
 20
2.5400
 30
0.0000
 41
2.0828
 42
2.0828
 43
1.0000
 50
90.0000
  0
INSERT
  8
30
  2
OCTAGONP
 10
24.7650
 20
2.5400
 30
0.0000
 41
2.0828
 42
2.0828
 43
1.0000
 50
90.0000
  0
INSERT
  8
30
  2
OCTAGONP
 10
27.3050
 20
5.0800
 30
0.0000
 41
2.0828
 42
2.0828
 43
1.0000
 50
90.0000
  0
INSERT
  8
30
  2
OCTAGONP
 10
24.7650
 20
5.0800
 30
0.0000
 41
2.0828
 42
2.0828
 43
1.0000
 50
90.0000
  0
INSERT
  8
30
  2
OCTAGONP
 10
27.3050
 20
7.6200
 30
0.0000
 41
2.0828
 42
2.0828
 43
1.0000
 50
90.0000
  0
INSERT
  8
30
  2
OCTAGONP
 10
24.7650
 20
7.6200
 30
0.0000
 41
2.0828
 42
2.0828
 43
1.0000
 50
90.0000
  0
INSERT
  8
30
  2
ROUNDP
 10
2.5400
 20
19.0500
 30
0.0000
 41
2.0828
 42
2.0828
 43
1.0000
 50
180.0000
  0
INSERT
  8
30
  2
ROUNDP
 10
2.5400
 20
21.5900
 30
0.0000
 41
2.0828
 42
2.0828
 43
1.0000
 50
180.0000
  0
INSERT
  8
30
  2
ROUNDP
 10
2.5400
 20
24.1300
 30
0.0000
 41
2.0828
 42
2.0828
 43
1.0000
 50
180.0000
  0
INSERT
  8
30
  2
ROUNDP
 10
5.7150
 20
19.0500
 30
0.0000
 41
2.0828
 42
2.0828
 43
1.0000
 50
180.0000
  0
INSERT
  8
30
  2
ROUNDP
 10
5.7150
 20
21.5900
 30
0.0000
 41
2.0828
 42
2.0828
 43
1.0000
 50
180.0000
  0
INSERT
  8
30
  2
ROUNDP
 10
5.7150
 20
24.1300
 30
0.0000
 41
2.0828
 42
2.0828
 43
1.0000
 50
180.0000
  0
INSERT
  8
30
  2
ROUNDP
 10
2.5400
 20
10.7950
 30
0.0000
 41
2.0828
 42
2.0828
 43
1.0000
 50
180.0000
  0
INSERT
  8
30
  2
ROUNDP
 10
2.5400
 20
13.3350
 30
0.0000
 41
2.0828
 42
2.0828
 43
1.0000
 50
180.0000
  0
INSERT
  8
30
  2
ROUNDP
 10
2.5400
 20
15.8750
 30
0.0000
 41
2.0828
 42
2.0828
 43
1.0000
 50
180.0000
  0
INSERT
  8
30
  2
ROUNDP
 10
5.7150
 20
10.7950
 30
0.0000
 41
2.0828
 42
2.0828
 43
1.0000
 50
180.0000
  0
INSERT
  8
30
  2
ROUNDP
 10
5.7150
 20
13.3350
 30
0.0000
 41
2.0828
 42
2.0828
 43
1.0000
 50
180.0000
  0
INSERT
  8
30
  2
ROUNDP
 10
5.7150
 20
15.8750
 30
0.0000
 41
2.0828
 42
2.0828
 43
1.0000
 50
180.0000
  0
INSERT
  8
30
  2
ROUNDP
 10
5.7150
 20
7.6200
 30
0.0000
 41
2.2352
 42
2.2352
 43
1.0000
 50
0.0000
  0
INSERT
  8
30
  2
ROUNDP
 10
5.7150
 20
5.0800
 30
0.0000
 41
2.2352
 42
2.2352
 43
1.0000
 50
0.0000
  0
INSERT
  8
30
  2
ROUNDP
 10
5.7150
 20
2.5400
 30
0.0000
 41
2.2352
 42
2.2352
 43
1.0000
 50
0.0000
  0
INSERT
  8
30
  2
ROUNDP
 10
2.5400
 20
7.6200
 30
0.0000
 41
2.2352
 42
2.2352
 43
1.0000
 50
0.0000
  0
INSERT
  8
30
  2
ROUNDP
 10
2.5400
 20
5.0800
 30
0.0000
 41
2.2352
 42
2.2352
 43
1.0000
 50
0.0000
  0
INSERT
  8
30
  2
ROUNDP
 10
2.5400
 20
2.5400
 30
0.0000
 41
2.2352
 42
2.2352
 43
1.0000
 50
0.0000
  0
INSERT
  8
30
  2
RECT
 10
20.3200
 20
4.7650
 30
0.0000
 41
0.9032
 42
1.1032
 43
1.0000
 50
0.0000
  0
INSERT
  8
30
  2
RECT
 10
19.6700
 20
6.6650
 30
0.0000
 41
0.9032
 42
1.1032
 43
1.0000
 50
0.0000
  0
INSERT
  8
30
  2
RECT
 10
20.9700
 20
6.6650
 30
0.0000
 41
0.9032
 42
1.1032
 43
1.0000
 50
0.0000
  0
INSERT
  8
30
  2
SQUAREP
 10
12.7000
 20
2.5400
 30
0.0000
 41
2.0828
 42
2.0828
 43
1.0000
 50
90.0000
  0
INSERT
  8
30
  2
ROUNDP
 10
15.2400
 20
2.5400
 30
0.0000
 41
2.0828
 42
2.0828
 43
1.0000
 50
90.0000
  0
INSERT
  8
30
  2
ROUNDP
 10
17.7800
 20
2.5400
 30
0.0000
 41
2.0828
 42
2.0828
 43
1.0000
 50
90.0000
  0
INSERT
  8
30
  2
ROUNDP
 10
20.3200
 20
2.5400
 30
0.0000
 41
2.0828
 42
2.0828
 43
1.0000
 50
90.0000
  0
INSERT
  8
30
  2
RECT
 10
17.5150
 20
16.7850
 30
0.0000
 41
1.4032
 42
0.4732
 43
1.0000
 50
90.0000
  0
INSERT
  8
30
  2
RECT
 10
16.8650
 20
16.7850
 30
0.0000
 41
0.4732
 42
1.4032
 43
1.0000
 50
180.0000
  0
INSERT
  8
30
  2
RECT
 10
16.2150
 20
16.7850
 30
0.0000
 41
0.4732
 42
1.4032
 43
1.0000
 50
180.0000
  0
INSERT
  8
30
  2
RECT
 10
15.5650
 20
16.7850
 30
0.0000
 41
0.4732
 42
1.4032
 43
1.0000
 50
180.0000
  0
INSERT
  8
30
  2
RECT
 10
14.9150
 20
16.7850
 30
0.0000
 41
0.4732
 42
1.4032
 43
1.0000
 50
180.0000
  0
INSERT
  8
30
  2
RECT
 10
14.2650
 20
16.7850
 30
0.0000
 41
0.4732
 42
1.4032
 43
1.0000
 50
180.0000
  0
INSERT
  8
30
  2
RECT
 10
13.6150
 20
16.7850
 30
0.0000
 41
0.4732
 42
1.4032
 43
1.0000
 50
180.0000
  0
INSERT
  8
30
  2
RECT
 10
12.9650
 20
16.7850
 30
0.0000
 41
1.4032
 42
0.4732
 43
1.0000
 50
90.0000
  0
INSERT
  8
30
  2
RECT
 10
12.9650
 20
22.5850
 30
0.0000
 41
1.4032
 42
0.4732
 43
1.0000
 50
90.0000
  0
INSERT
  8
30
  2
RECT
 10
13.6150
 20
22.5850
 30
0.0000
 41
0.4732
 42
1.4032
 43
1.0000
 50
0.0000
  0
INSERT
  8
30
  2
RECT
 10
14.2650
 20
22.5850
 30
0.0000
 41
0.4732
 42
1.4032
 43
1.0000
 50
0.0000
  0
INSERT
  8
30
  2
RECT
 10
14.9150
 20
22.5850
 30
0.0000
 41
0.4732
 42
1.4032
 43
1.0000
 50
0.0000
  0
INSERT
  8
30
  2
RECT
 10
15.5650
 20
22.5850
 30
0.0000
 41
0.4732
 42
1.4032
 43
1.0000
 50
0.0000
  0
INSERT
  8
30
  2
RECT
 10
16.2150
 20
22.5850
 30
0.0000
 41
0.4732
 42
1.4032
 43
1.0000
 50
0.0000
  0
INSERT
  8
30
  2
RECT
 10
16.8650
 20
22.5850
 30
0.0000
 41
0.4732
 42
1.4032
 43
1.0000
 50
0.0000
  0
INSERT
  8
30
  2
RECT
 10
17.5150
 20
22.5850
 30
0.0000
 41
1.4032
 42
0.4732
 43
1.0000
 50
90.0000
  0
INSERT
  8
30
  2
ROUNDV
 10
14.7320
 20
9.2964
 30
0.0000
 41
0.9398
 42
0.9398
 43
1.0000
 50
0.0000
  0
INSERT
  8
30
  2
ROUNDV
 10
14.2748
 20
15.5448
 30
0.0000
 41
0.9398
 42
0.9398
 43
1.0000
 50
0.0000
  0
INSERT
  8
30
  2
ROUNDV
 10
17.7800
 20
8.9916
 30
0.0000
 41
0.9398
 42
0.9398
 43
1.0000
 50
0.0000
  0
INSERT
  8
30
  2
ROUNDV
 10
20.9550
 20
7.7470
 30
0.0000
 41
0.9398
 42
0.9398
 43
1.0000
 50
0.0000
  0
INSERT
  8
30
  2
ROUNDV
 10
18.4150
 20
7.7470
 30
0.0000
 41
0.9398
 42
0.9398
 43
1.0000
 50
0.0000
  0
INSERT
  8
30
  2
ROUNDV
 10
15.8750
 20
7.7470
 30
0.0000
 41
0.9398
 42
0.9398
 43
1.0000
 50
0.0000
  0
INSERT
  8
30
  2
ROUNDV
 10
12.2936
 20
16.4592
 30
0.0000
 41
0.9398
 42
0.9398
 43
1.0000
 50
0.0000
  0
INSERT
  8
30
  2
ROUNDV
 10
12.2936
 20
13.4112
 30
0.0000
 41
0.9398
 42
0.9398
 43
1.0000
 50
0.0000
  0
INSERT
  8
30
  2
ROUNDV
 10
15.9512
 20
14.6304
 30
0.0000
 41
0.9398
 42
0.9398
 43
1.0000
 50
0.0000
  0
INSERT
  8
30
  2
ROUNDV
 10
21.5900
 20
9.7536
 30
0.0000
 41
0.9398
 42
0.9398
 43
1.0000
 50
0.0000
  0
INSERT
  8
30
  2
ROUNDV
 10
14.7320
 20
20.2692
 30
0.0000
 41
0.9398
 42
0.9398
 43
1.0000
 50
0.0000
  0
INSERT
  8
30
  2
ROUNDV
 10
15.4940
 20
15.5448
 30
0.0000
 41
0.9398
 42
0.9398
 43
1.0000
 50
0.0000
  0
ENDSEC
  0
EOF
