G75*
%MOIN*%
%OFA0B0*%
%FSLAX25Y25*%
%IPPOS*%
%LPD*%
%AMOC8*
5,1,8,0,0,1.08239X$1,22.5*
%
%ADD10R,0.07400X0.07400*%
%ADD11C,0.07400*%
%ADD12R,0.08700X0.02400*%
%ADD13C,0.08000*%
%ADD14R,0.04724X0.03150*%
%ADD15R,0.06299X0.05512*%
%ADD16OC8,0.07400*%
%ADD17C,0.00600*%
%ADD18C,0.02900*%
%ADD19C,0.07000*%
%ADD20C,0.01000*%
%ADD21C,0.05000*%
%ADD22C,0.00800*%
%ADD23C,0.01600*%
%ADD24C,0.08268*%
D10*
X0054867Y0013000D03*
D11*
X0064867Y0013000D03*
X0074867Y0013000D03*
X0084867Y0013000D03*
X0102367Y0058000D03*
X0102367Y0068000D03*
X0102367Y0078000D03*
X0102367Y0088000D03*
X0114867Y0088000D03*
X0114867Y0078000D03*
X0114867Y0068000D03*
X0114867Y0058000D03*
X0114867Y0098000D03*
X0102367Y0098000D03*
X0027367Y0098000D03*
X0027367Y0088000D03*
X0027367Y0078000D03*
X0014867Y0078000D03*
X0014867Y0088000D03*
X0014867Y0098000D03*
X0014867Y0065500D03*
X0014867Y0055500D03*
X0014867Y0045500D03*
X0027367Y0045500D03*
X0027367Y0055500D03*
X0027367Y0065500D03*
D12*
X0046617Y0063000D03*
X0046617Y0058000D03*
X0046617Y0053000D03*
X0046617Y0048000D03*
X0046617Y0068000D03*
X0046617Y0073000D03*
X0046617Y0078000D03*
X0046617Y0083000D03*
X0046617Y0088000D03*
X0046717Y0093000D03*
X0083117Y0093000D03*
X0083117Y0088000D03*
X0083117Y0083000D03*
X0083117Y0078000D03*
X0083117Y0073000D03*
X0083117Y0068000D03*
X0083117Y0063000D03*
X0083117Y0058000D03*
X0083117Y0053000D03*
X0083117Y0048000D03*
D13*
X0014867Y0013000D03*
X0014867Y0023000D03*
X0014867Y0033000D03*
X0027367Y0033000D03*
X0027367Y0023000D03*
X0027367Y0013000D03*
D14*
X0047367Y0021957D03*
X0047367Y0029043D03*
X0092367Y0066957D03*
X0092367Y0074043D03*
X0092367Y0079457D03*
X0092367Y0086543D03*
X0092367Y0091957D03*
X0092367Y0099043D03*
X0037367Y0101543D03*
X0037367Y0094457D03*
X0037367Y0089043D03*
X0037367Y0081957D03*
X0037367Y0076543D03*
X0037367Y0069457D03*
D15*
X0037367Y0033512D03*
X0037367Y0022488D03*
D16*
X0102367Y0023000D03*
X0112367Y0023000D03*
X0112367Y0033000D03*
X0102367Y0033000D03*
X0102367Y0013000D03*
X0112367Y0013000D03*
D17*
X0102367Y0013000D02*
X0101867Y0013200D01*
X0100667Y0013200D01*
X0092267Y0021600D01*
X0092267Y0021957D01*
X0107267Y0028200D02*
X0107267Y0034800D01*
X0096467Y0045600D01*
X0096467Y0068400D01*
X0094667Y0070200D01*
X0078467Y0070200D01*
X0077867Y0069600D01*
X0077867Y0061200D01*
X0080867Y0058200D01*
X0082667Y0058200D01*
X0083117Y0058000D01*
X0079067Y0055800D02*
X0088067Y0055800D01*
X0088667Y0056400D01*
X0088667Y0059400D01*
X0085067Y0063000D01*
X0083117Y0063000D01*
X0079067Y0055800D02*
X0062867Y0039600D01*
X0074867Y0038400D02*
X0074867Y0046800D01*
X0080867Y0052800D01*
X0082667Y0052800D01*
X0083117Y0053000D01*
X0083117Y0048000D02*
X0083267Y0048000D01*
X0089867Y0041400D01*
X0107267Y0028200D02*
X0112067Y0023400D01*
X0112367Y0023000D01*
X0112367Y0033000D02*
X0112067Y0033000D01*
X0110267Y0034800D01*
X0110267Y0067200D01*
X0104867Y0072600D01*
X0100667Y0072600D01*
X0097667Y0075600D01*
X0097667Y0079800D01*
X0092867Y0084600D01*
X0092867Y0086400D01*
X0092367Y0086543D01*
X0088067Y0085200D02*
X0092267Y0081000D01*
X0092267Y0079800D01*
X0092367Y0079457D01*
X0092267Y0079200D01*
X0088667Y0075600D01*
X0049067Y0075600D01*
X0046667Y0073200D01*
X0046617Y0073000D01*
X0046067Y0072600D01*
X0044267Y0072600D01*
X0040667Y0069000D01*
X0040667Y0067200D01*
X0039467Y0066000D01*
X0027467Y0066000D01*
X0027367Y0065500D01*
X0029867Y0069600D02*
X0029267Y0070200D01*
X0019067Y0070200D01*
X0014867Y0066000D01*
X0014867Y0065500D01*
X0010067Y0073200D02*
X0014867Y0078000D01*
X0010067Y0073200D02*
X0010067Y0053400D01*
X0014867Y0048600D01*
X0014867Y0045500D01*
X0014867Y0055500D02*
X0014867Y0055800D01*
X0026867Y0055800D01*
X0027367Y0055500D01*
X0041267Y0064800D02*
X0041267Y0033512D01*
X0046617Y0048000D02*
X0051467Y0048000D01*
X0064067Y0060600D01*
X0067667Y0060600D01*
X0065867Y0064200D02*
X0059867Y0058200D01*
X0046667Y0058200D01*
X0046617Y0058000D01*
X0046667Y0053400D02*
X0046617Y0053000D01*
X0046667Y0053400D02*
X0050867Y0053400D01*
X0053267Y0055800D01*
X0059867Y0063000D02*
X0046617Y0063000D01*
X0044267Y0067800D02*
X0041267Y0064800D01*
X0044267Y0067800D02*
X0046067Y0067800D01*
X0046617Y0068000D01*
X0046667Y0067800D01*
X0053267Y0067800D01*
X0059867Y0063000D02*
X0061067Y0064200D01*
X0062867Y0082800D02*
X0082667Y0082800D01*
X0083117Y0083000D01*
X0079067Y0085200D02*
X0088067Y0085200D01*
X0079067Y0085200D02*
X0077867Y0086400D01*
X0077867Y0094800D01*
X0078467Y0095400D01*
X0094067Y0095400D01*
X0096467Y0097800D01*
X0101867Y0097800D01*
X0102367Y0098000D01*
X0102467Y0097800D01*
X0114467Y0097800D01*
X0114867Y0098000D01*
X0116867Y0102600D02*
X0119867Y0099600D01*
X0119867Y0063000D01*
X0114867Y0058000D01*
X0102367Y0058000D02*
X0101867Y0058200D01*
X0097667Y0062400D01*
X0097667Y0069000D01*
X0092867Y0073800D01*
X0092367Y0074043D01*
X0092367Y0099043D02*
X0092867Y0099600D01*
X0097067Y0099600D01*
X0100067Y0102600D01*
X0116867Y0102600D01*
X0037367Y0069457D02*
X0037067Y0069600D01*
X0029867Y0069600D01*
X0027367Y0088000D02*
X0026867Y0088200D01*
X0014867Y0088200D01*
X0014867Y0088000D01*
D18*
X0053267Y0067800D03*
X0061067Y0064200D03*
X0065867Y0064200D03*
X0067667Y0060600D03*
X0053267Y0055800D03*
X0062867Y0039600D03*
X0067367Y0033500D03*
X0074867Y0038400D03*
X0077367Y0033500D03*
X0087367Y0033500D03*
X0089867Y0041400D03*
X0062867Y0082800D03*
D19*
X0037367Y0033512D02*
X0037367Y0033000D01*
X0027367Y0033000D01*
X0027367Y0023000D02*
X0037367Y0023000D01*
X0037367Y0022488D01*
D20*
X0083117Y0066957D02*
X0083117Y0068000D01*
X0083117Y0066957D02*
X0092367Y0066957D01*
X0092367Y0074043D02*
X0083117Y0074043D01*
X0083117Y0073000D01*
D21*
X0087367Y0033500D02*
X0077367Y0033500D01*
X0067367Y0033500D01*
X0047367Y0033500D01*
X0047367Y0033512D02*
X0041267Y0033512D01*
X0037367Y0033512D01*
X0047367Y0033000D02*
X0047367Y0029043D01*
X0047367Y0022488D02*
X0037367Y0022488D01*
D22*
X0047367Y0021957D02*
X0092267Y0021957D01*
X0092367Y0021957D01*
X0092367Y0066957D01*
X0092367Y0086543D02*
X0092367Y0091957D01*
X0092367Y0093000D01*
X0083117Y0093000D01*
X0047367Y0033512D02*
X0047367Y0033500D01*
X0047367Y0033000D01*
D23*
X0047367Y0022488D02*
X0047367Y0021957D01*
X0037367Y0076543D02*
X0037367Y0081957D01*
X0037367Y0083000D01*
X0046617Y0083000D01*
X0046617Y0088000D02*
X0037367Y0088000D01*
X0037367Y0089043D01*
X0037367Y0094457D01*
X0037367Y0101543D02*
X0027367Y0101543D01*
X0027367Y0098000D01*
D24*
X0027367Y0013000D02*
X0054867Y0013000D01*
M02*
