G75*
%MOIN*%
%OFA0B0*%
%FSLAX25Y25*%
%IPPOS*%
%LPD*%
%AMOC8*
5,1,8,0,0,1.08239X$1,22.5*
%
%ADD10R,0.08200X0.08200*%
%ADD11C,0.08200*%
%ADD12R,0.09500X0.03200*%
%ADD13C,0.09200*%
%ADD14R,0.05524X0.03950*%
%ADD15R,0.07099X0.06312*%
%ADD16OC8,0.08200*%
%ADD17C,0.03700*%
D10*
X0054867Y0013000D03*
D11*
X0064867Y0013000D03*
X0074867Y0013000D03*
X0084867Y0013000D03*
X0102367Y0058000D03*
X0102367Y0068000D03*
X0102367Y0078000D03*
X0102367Y0088000D03*
X0114867Y0088000D03*
X0114867Y0078000D03*
X0114867Y0068000D03*
X0114867Y0058000D03*
X0114867Y0098000D03*
X0102367Y0098000D03*
X0027367Y0098000D03*
X0027367Y0088000D03*
X0027367Y0078000D03*
X0014867Y0078000D03*
X0014867Y0088000D03*
X0014867Y0098000D03*
X0014867Y0065500D03*
X0014867Y0055500D03*
X0014867Y0045500D03*
X0027367Y0045500D03*
X0027367Y0055500D03*
X0027367Y0065500D03*
D12*
X0046617Y0063000D03*
X0046617Y0058000D03*
X0046617Y0053000D03*
X0046617Y0048000D03*
X0046617Y0068000D03*
X0046617Y0073000D03*
X0046617Y0078000D03*
X0046617Y0083000D03*
X0046617Y0088000D03*
X0046717Y0093000D03*
X0083117Y0093000D03*
X0083117Y0088000D03*
X0083117Y0083000D03*
X0083117Y0078000D03*
X0083117Y0073000D03*
X0083117Y0068000D03*
X0083117Y0063000D03*
X0083117Y0058000D03*
X0083117Y0053000D03*
X0083117Y0048000D03*
D13*
X0014867Y0013000D03*
X0014867Y0023000D03*
X0014867Y0033000D03*
X0027367Y0033000D03*
X0027367Y0023000D03*
X0027367Y0013000D03*
D14*
X0047367Y0021957D03*
X0047367Y0029043D03*
X0092367Y0066957D03*
X0092367Y0074043D03*
X0092367Y0079457D03*
X0092367Y0086543D03*
X0092367Y0091957D03*
X0092367Y0099043D03*
X0037367Y0101543D03*
X0037367Y0094457D03*
X0037367Y0089043D03*
X0037367Y0081957D03*
X0037367Y0076543D03*
X0037367Y0069457D03*
D15*
X0037367Y0033512D03*
X0037367Y0022488D03*
D16*
X0102367Y0023000D03*
X0112367Y0023000D03*
X0112367Y0033000D03*
X0102367Y0033000D03*
X0102367Y0013000D03*
X0112367Y0013000D03*
D17*
X0087367Y0033500D03*
X0089867Y0041400D03*
X0077367Y0033500D03*
X0074867Y0038400D03*
X0067367Y0033500D03*
X0062867Y0039600D03*
X0053267Y0055800D03*
X0061067Y0064200D03*
X0065867Y0064200D03*
X0067667Y0060600D03*
X0053267Y0067800D03*
X0062867Y0082800D03*
M02*
