G75*
%MOIN*%
%OFA0B0*%
%FSLAX25Y25*%
%IPPOS*%
%LPD*%
%AMOC8*
5,1,8,0,0,1.08239X$1,22.5*
%
%ADD10R,0.03556X0.04343*%
%ADD11R,0.08200X0.08200*%
%ADD12C,0.08200*%
%ADD13R,0.01863X0.05524*%
%ADD14C,0.09200*%
%ADD15R,0.05524X0.03950*%
%ADD16OC8,0.08200*%
%ADD17C,0.03700*%
D10*
X0062308Y0029240D03*
X0067426Y0029240D03*
X0072308Y0029240D03*
X0077426Y0029240D03*
X0082308Y0029240D03*
X0087426Y0029240D03*
X0084867Y0021760D03*
X0074867Y0021760D03*
X0064867Y0021760D03*
D11*
X0054867Y0013000D03*
D12*
X0064867Y0013000D03*
X0074867Y0013000D03*
X0084867Y0013000D03*
X0102367Y0058000D03*
X0102367Y0068000D03*
X0102367Y0078000D03*
X0102367Y0088000D03*
X0114867Y0088000D03*
X0114867Y0078000D03*
X0114867Y0068000D03*
X0114867Y0058000D03*
X0114867Y0098000D03*
X0102367Y0098000D03*
X0027367Y0098000D03*
X0027367Y0088000D03*
X0027367Y0078000D03*
X0014867Y0078000D03*
X0014867Y0088000D03*
X0014867Y0098000D03*
X0014867Y0065500D03*
X0014867Y0055500D03*
X0014867Y0045500D03*
X0027367Y0045500D03*
X0027367Y0055500D03*
X0027367Y0065500D03*
D13*
X0055910Y0069083D03*
X0058469Y0069083D03*
X0061028Y0069083D03*
X0063587Y0069083D03*
X0066146Y0069083D03*
X0068705Y0069083D03*
X0071264Y0069083D03*
X0073823Y0069083D03*
X0073823Y0091917D03*
X0071264Y0091917D03*
X0068705Y0091917D03*
X0066146Y0091917D03*
X0063587Y0091917D03*
X0061028Y0091917D03*
X0058469Y0091917D03*
X0055910Y0091917D03*
D14*
X0014867Y0013000D03*
X0014867Y0023000D03*
X0014867Y0033000D03*
X0027367Y0033000D03*
X0027367Y0023000D03*
X0027367Y0013000D03*
D15*
X0072367Y0054457D03*
X0072367Y0061543D03*
D16*
X0102367Y0033000D03*
X0112367Y0033000D03*
X0112367Y0023000D03*
X0102367Y0023000D03*
X0102367Y0013000D03*
X0112367Y0013000D03*
D17*
X0087367Y0033500D03*
X0089867Y0041400D03*
X0077367Y0033500D03*
X0074867Y0038400D03*
X0067367Y0033500D03*
X0062867Y0039600D03*
X0053267Y0055800D03*
X0061067Y0064200D03*
X0065867Y0064200D03*
X0067667Y0060600D03*
X0053267Y0067800D03*
X0062867Y0082800D03*
M02*
